<?xml version="1.0" encoding="UTF-8" standalone="no"?>
<!-- Created with Inkscape (http://www.inkscape.org/) -->

<svg
   width="208.02229mm"
   height="94.722137mm"
   viewBox="0 0 208.02229 94.722137"
   version="1.1"
   id="svg597"
   xmlns="http://www.w3.org/2000/svg">
  <defs
     id="defs594" />
  <g
     id="layer1"
     transform="translate(-32.979403,-114.89413)">
    <path
       class="cls-1"
       d="m 68.483001,159.52006 a 2.0611041,2.0611041 0 0 0 -0.61648,-1.4896 2.0108333,2.0108333 0 0 0 -1.484312,-0.62707 2.0611041,2.0611041 0 0 0 -1.510771,0.61648 2.0399375,2.0399375 0 0 0 -0.616479,1.50284 v 42.52383 a 1.7012708,1.7012708 0 0 1 -0.494771,1.26735 1.762125,1.762125 0 0 1 -1.280583,0.48419 1.6615833,1.6615833 0 0 1 -1.748896,-1.75154 v -42.52648 a 5.5827083,5.5827083 0 0 1 5.6515,-5.64885 5.6382708,5.6382708 0 0 1 3.923771,1.55575 4.9291874,4.9291874 0 0 1 1.701271,3.77825"
       id="path247"
       style="fill:current;stroke-width:0.264583" />
    <path
       class="cls-1"
       d="m 60.730709,159.21579 a 4.9291874,4.9291874 0 0 1 1.701271,-3.77825 5.6382708,5.6382708 0 0 1 3.923771,-1.55575 5.5827083,5.5827083 0 0 1 5.6515,5.63827 v 11.26596 a 1.6589375,1.6589375 0 0 1 -1.748896,1.75154 1.7515416,1.7515416 0 0 1 -1.277938,-0.48419 1.6933333,1.6933333 0 0 1 -0.497416,-1.26735 v -11.26596 a 2.0293541,2.0293541 0 0 0 -0.61648,-1.50283 2.0584583,2.0584583 0 0 0 -1.51077,-0.61648 2.0108333,2.0108333 0 0 0 -1.484313,0.62706 2.0611041,2.0611041 0 0 0 -0.616479,1.4896"
       id="path249"
       style="fill:current;stroke-width:0.264583" />
    <path
       class="cls-1"
       d="m 90.541313,178.30548 h -0.129646 a 5.4027916,5.4027916 0 0 1 -3.995208,-1.64571 5.4583541,5.4583541 0 0 1 -1.61925,-4.00844 v -6.18596 a 6.6992499,6.6992499 0 0 1 -3.159125,0.79375 1.6933333,1.6933333 0 0 1 -1.267354,-0.49477 1.7674166,1.7674166 0 0 1 -0.481542,-1.28058 1.6589375,1.6589375 0 0 1 1.748896,-1.7489 3.175,3.175 0 1 0 -3.132667,-3.175 v 10.25261 a 1.7012708,1.7012708 0 0 1 -0.494771,1.26735 1.762125,1.762125 0 0 1 -1.280583,0.48419 1.6615833,1.6615833 0 0 1 -1.748896,-1.75154 v -10.26319 a 6.670146,6.670146 0 1 1 13.340292,0 v 12.10204 a 2.0584583,2.0584583 0 0 0 0.600604,1.50283 1.9923125,1.9923125 0 0 0 1.486958,0.61648 h 0.129646 a 1.6880416,1.6880416 0 0 1 1.267354,0.49477 1.7541875,1.7541875 0 0 1 0.481542,1.28059 1.6959791,1.6959791 0 0 1 -1.748896,1.74889 z"
       id="path251"
       style="fill:current;stroke-width:0.264583" />
    <path
       class="cls-1"
       d="m 98.923313,170.7966 a 1.6615833,1.6615833 0 0 1 -1.751542,1.75154 1.7515416,1.7515416 0 0 1 -1.277937,-0.48418 1.6933333,1.6933333 0 0 1 -0.497417,-1.26736 v -13.39321 h -2.296583 a 1.698625,1.698625 0 0 1 -1.775354,-1.77535 1.6880416,1.6880416 0 0 1 0.497416,-1.26471 1.7515416,1.7515416 0 0 1 1.277938,-0.48419 h 8.249706 a 1.7594791,1.7594791 0 0 1 1.28059,0.48419 1.6959791,1.6959791 0 0 1 0.49477,1.26471 1.6959791,1.6959791 0 0 1 -1.77536,1.77535 h -2.426227 z"
       id="path253"
       style="fill:current;stroke-width:0.264583" />
    <path
       class="cls-1"
       d="m 109.62571,155.63598 v 11.2686 a 2.0928541,2.0928541 0 0 0 2.11667,2.11667 2.0028958,2.0028958 0 0 0 1.48695,-0.61119 2.0584583,2.0584583 0 0 0 0.60061,-1.50019 V 155.6545 a 1.7409583,1.7409583 0 0 1 1.77535,-1.77271 1.6933333,1.6933333 0 0 1 1.26736,0.49742 1.7541875,1.7541875 0 0 1 0.48154,1.27529 v 11.27389 a 5.6250506,5.6250506 0 1 1 -11.25009,-0.0159 V 155.6333 a 1.6589375,1.6589375 0 0 1 1.7489,-1.75154 1.7515416,1.7515416 0 0 1 1.27794,0.48419 1.6959791,1.6959791 0 0 1 0.49477,1.27 z"
       id="path255"
       style="fill:current;stroke-width:0.264583" />
    <path
       class="cls-1"
       d="m 128.78683,167.00512 a 2.0028958,2.0028958 0 0 0 0.62707,1.42611 1.9605625,1.9605625 0 0 0 1.42081,0.58737 1.8150416,1.8150416 0 0 1 1.32291,0.48419 1.7356666,1.7356666 0 0 1 0.49478,1.29381 1.698625,1.698625 0 0 1 -0.49478,1.26736 1.762125,1.762125 0 0 1 -1.28058,0.48418 5.4107291,5.4107291 0 0 1 -4.00844,-1.62189 5.4980416,5.4980416 0 0 1 -1.60337,-4.02696 v -1.43669 a 1.7859375,1.7859375 0 0 1 1.74889,-1.75419 3.1511875,3.1511875 0 0 0 2.23044,-5.38691 3.0612291,3.0612291 0 0 0 -2.23044,-0.91546 3.1220833,3.1220833 0 0 0 -3.13266,3.13796 v 10.2526 a 1.6933333,1.6933333 0 0 1 -0.49742,1.26736 1.7515416,1.7515416 0 0 1 -1.27794,0.48418 1.6959791,1.6959791 0 0 1 -1.74889,-1.75154 v -10.24731 a 6.6701457,6.6701457 0 1 1 11.98298,4.05077 6.6516249,6.6516249 0 0 1 -3.55336,2.40506 z"
       id="path257"
       style="fill:current;stroke-width:0.264583" />
    <path
       class="cls-1"
       d="m 152.22892,178.30548 h -0.1323 a 5.4027916,5.4027916 0 0 1 -3.99256,-1.63248 5.4689374,5.4689374 0 0 1 -1.62719,-4.02167 v -6.18596 a 6.6992499,6.6992499 0 0 1 -3.15912,0.79375 1.68275,1.68275 0 0 1 -1.26471,-0.49477 1.7594791,1.7594791 0 0 1 -0.48419,-1.28058 1.6615833,1.6615833 0 0 1 1.7489,-1.7489 3.175,3.175 0 1 0 -3.13267,-3.175 v 10.25261 a 1.7012708,1.7012708 0 0 1 -0.49477,1.26735 1.7541875,1.7541875 0 0 1 -1.28058,0.48419 1.6615833,1.6615833 0 0 1 -1.7489,-1.75154 v -10.26319 a 6.6701457,6.6701457 0 1 1 13.34029,0 v 12.10204 a 2.0690416,2.0690416 0 0 0 0.60061,1.50283 1.9949583,1.9949583 0 0 0 1.48696,0.61648 h 0.13229 a 1.6853958,1.6853958 0 0 1 1.26471,0.49477 1.7541875,1.7541875 0 0 1 0.48418,1.28059 1.7012708,1.7012708 0 0 1 -1.74889,1.74889 z"
       id="path259"
       style="fill:current;stroke-width:0.264583" />
    <path
       class="cls-1"
       d="m 159.77219,172.54814 h -1.14829 a 5.5377291,5.5377291 0 0 1 -5.63828,-5.6462 v -11.26861 a 1.6589375,1.6589375 0 0 1 1.7489,-1.75154 1.7515416,1.7515416 0 0 1 1.27794,0.48419 1.6959791,1.6959791 0 0 1 0.49741,1.27 v 11.2686 a 2.0955,2.0955 0 0 0 2.11667,2.11667 h 1.14829 a 1.6906875,1.6906875 0 0 1 1.26471,0.49477 1.7594791,1.7594791 0 0 1 0.48419,1.28058 1.6615833,1.6615833 0 0 1 -1.7489,1.7489 z"
       id="path261"
       style="fill:current;stroke-width:0.264583" />
    <path
       class="cls-1"
       d="m 179.53392,159.52006 a 2.0584583,2.0584583 0 0 0 -0.61384,-1.4896 2.0663958,2.0663958 0 0 0 -3.14589,0.21166 v 12.55184 a 1.6933333,1.6933333 0 0 1 -0.49477,1.26735 1.7541875,1.7541875 0 0 1 -1.28059,0.48419 1.6615833,1.6615833 0 0 1 -1.74889,-1.75154 v -11.2739 a 2.11667,2.11667 0 1 0 -4.23334,0 v 11.27125 a 1.6615833,1.6615833 0 0 1 -1.74889,1.75154 1.7541875,1.7541875 0 0 1 -1.28059,-0.48419 1.6880416,1.6880416 0 0 1 -0.49477,-1.26735 v -11.27125 a 5.6038749,5.6038749 0 0 1 9.29217,-4.26508 5.6118124,5.6118124 0 0 1 7.6491,0.26458 5.4742291,5.4742291 0 0 1 1.62455,4.0005 v 13.12069 a 2.1007916,2.1007916 0 0 0 2.11666,2.11666 h 0.10584 a 1.698625,1.698625 0 0 1 1.77535,1.77536 1.6880416,1.6880416 0 0 1 -0.49742,1.26471 1.7515416,1.7515416 0 0 1 -1.27793,0.48418 h -0.10584 a 5.5800624,5.5800624 0 0 1 -5.63827,-5.6462 z"
       id="path263"
       style="fill:current;stroke-width:0.264583" />
    <path
       class="cls-1"
       d="m 213.54875,178.30548 h -0.10319 a 5.5377291,5.5377291 0 0 1 -5.64092,-5.64621 v -13.13921 a 2.0505208,2.0505208 0 0 0 -0.61647,-1.4896 2.0108333,2.0108333 0 0 0 -1.48432,-0.62707 2.0611041,2.0611041 0 0 0 -1.51077,0.61648 2.0399375,2.0399375 0 0 0 -0.61648,1.50284 v 11.27125 a 1.7012708,1.7012708 0 0 1 -0.49477,1.26735 1.762125,1.762125 0 0 1 -1.28058,0.48419 1.6615833,1.6615833 0 0 1 -1.7489,-1.75154 v -11.2739 a 5.5827083,5.5827083 0 0 1 5.6515,-5.64885 5.6382708,5.6382708 0 0 1 3.92377,1.55575 4.9291874,4.9291874 0 0 1 1.70127,3.77825 v 13.43289 a 2.1007916,2.1007916 0 0 0 2.11667,2.11667 h 0.10319 a 1.698625,1.698625 0 0 1 1.77535,1.77535 1.6880416,1.6880416 0 0 1 -0.49741,1.26471 1.7515416,1.7515416 0 0 1 -1.27794,0.51065 z"
       id="path265"
       style="fill:current;stroke-width:0.264583" />
    <path
       class="cls-1"
       d="m 221.9281,170.7966 a 1.6615833,1.6615833 0 0 1 -1.74889,1.75154 1.7594791,1.7594791 0 0 1 -1.28059,-0.48418 1.7012708,1.7012708 0 0 1 -0.49477,-1.26736 v -13.39321 h -2.29658 a 1.6959791,1.6959791 0 0 1 -1.77535,-1.77535 1.6853958,1.6853958 0 0 1 0.49477,-1.26471 1.7541875,1.7541875 0 0 1 1.28058,-0.48419 h 8.24971 a 1.7515416,1.7515416 0 0 1 1.27794,0.48419 1.6853958,1.6853958 0 0 1 0.49477,1.26471 1.6959791,1.6959791 0 0 1 -1.77271,1.77535 h -2.42888 z"
       id="path267"
       style="fill:current;stroke-width:0.264583" />
    <path
       class="cls-1"
       d="m 62.582792,209.61627 a 3.96875,3.96875 0 1 1 3.96875,-3.96875 3.96875,3.96875 0 0 1 -3.96875,3.96875 z m 0,-5.47159 a 1.5134166,1.5134166 0 1 0 1.510771,1.51342 1.5134166,1.5134166 0 0 0 -1.510771,-1.51342 z"
       id="path269"
       style="fill:current;stroke-width:0.264583" />
    <path
       class="cls-1"
       d="m 195.45654,172.5746 h -3.37079 a 5.5377291,5.5377291 0 0 1 -5.63827,-5.64621 v -6.31825 a 1.6589375,1.6589375 0 0 1 1.74889,-1.75154 1.7727083,1.7727083 0 0 1 1.28059,0.48154 1.7039166,1.7039166 0 0 1 0.49477,1.27 v 6.31825 a 2.0955,2.0955 0 0 0 2.11666,2.11667 h 3.3708 a 1.6880416,1.6880416 0 0 1 1.26735,0.49477 1.7647708,1.7647708 0 0 1 0.48154,1.28058 1.6589375,1.6589375 0 0 1 -1.74889,1.7489 z"
       id="path271"
       style="fill:current;stroke-width:0.264583" />
    <path
       class="cls-1"
       d="m 196.72389,154.33952 a 1.7171458,1.7171458 0 0 1 0.48155,1.26471 1.7647708,1.7647708 0 0 1 -0.48155,1.28058 1.6880416,1.6880416 0 0 1 -1.26735,0.49477 h -3.37079 a 2.1007916,2.1007916 0 0 0 -2.11667,2.11667 v 5.34194 a 1.7012708,1.7012708 0 0 1 -0.49477,1.26735 1.762125,1.762125 0 0 1 -1.28058,0.48419 1.6615833,1.6615833 0 0 1 -1.7489,-1.75154 v -5.334 a 5.5324374,5.5324374 0 0 1 5.63827,-5.64621 h 3.37079 a 1.7118541,1.7118541 0 0 1 1.27,0.48154 z"
       id="path273"
       style="fill:current;stroke-width:0.264583" />
    <path
       class="cls-1"
       d="m 183.37302,163.29302 m 3.8391,-1.85208 h 5.50598 a 1.7647708,1.7647708 0 0 1 1.28059,0.48154 1.6933333,1.6933333 0 0 1 0.49477,1.26735 1.698625,1.698625 0 0 1 -1.77536,1.77536 h -5.58535"
       id="path275"
       style="fill:current;stroke-width:0.264583" />
    <path
       class="cls-1"
       d="m 239.24773,172.54814 h -5.51921 a 5.5324374,5.5324374 0 0 1 -5.63827,-5.6462 v -6.32355 a 1.6589375,1.6589375 0 0 1 1.74889,-1.75154 1.7515416,1.7515416 0 0 1 1.27794,0.48419 1.6906875,1.6906875 0 0 1 0.49742,1.26735 v 6.3209 a 2.0928541,2.0928541 0 0 0 2.11667,2.11667 h 5.5192 a 1.6959791,1.6959791 0 0 1 1.26471,0.49477 1.7594791,1.7594791 0 0 1 0.48419,1.28058 1.6615833,1.6615833 0 0 1 -1.7489,1.7489 z"
       id="path277"
       style="fill:current;stroke-width:0.264583" />
    <path
       class="cls-1"
       d="m 238.36402,154.31306 a 1.7118541,1.7118541 0 0 1 0.48419,1.26735 1.7515416,1.7515416 0 0 1 -0.48419,1.27794 1.68275,1.68275 0 0 1 -1.26471,0.49742 h -3.37079 a 2.0928541,2.0928541 0 0 0 -2.11667,2.11667 v 5.33929 a 1.6906875,1.6906875 0 0 1 -0.49741,1.26735 1.7515416,1.7515416 0 0 1 -1.27794,0.48419 1.6589375,1.6589375 0 0 1 -1.7489,-1.75154 v -5.334 a 5.5271458,5.5271458 0 0 1 5.63827,-5.64621 h 3.3708 a 1.7145,1.7145 0 0 1 1.26735,0.48154 z"
       id="path279"
       style="fill:current;stroke-width:0.264583" />
    <path
       class="cls-1"
       d="m 225.01579,163.26656 m 3.83646,-1.85208 h 5.50862 a 1.7515416,1.7515416 0 0 1 1.27794,0.48418 1.68275,1.68275 0 0 1 0.49742,1.26471 1.698625,1.698625 0 0 1 -1.77536,1.77536 h -5.58535"
       id="path281"
       style="fill:current;stroke-width:0.264583" />
    <path
       class="cls-1"
       d="m 126.17804,207.12389 h -0.10319 a 5.5324374,5.5324374 0 0 1 -5.63827,-5.64621 v -13.11804 a 2.0452291,2.0452291 0 0 0 -0.61912,-1.4896 2.0081875,2.0081875 0 0 0 -1.48431,-0.62706 2.1007916,2.1007916 0 0 0 -2.11667,2.11666 v 11.27125 a 1.698625,1.698625 0 0 1 -0.49477,1.26736 1.7594791,1.7594791 0 0 1 -1.28058,0.48418 1.6615833,1.6615833 0 0 1 -1.7489,-1.75154 v -11.27125 a 5.5827083,5.5827083 0 0 1 5.6515,-5.64885 5.6329791,5.6329791 0 0 1 3.92377,1.55575 4.9291874,4.9291874 0 0 1 1.70127,3.77825 v 13.43819 a 2.0955,2.0955 0 0 0 2.11667,2.11666 h 0.10318 a 1.698625,1.698625 0 0 1 1.77536,1.77536 1.6880416,1.6880416 0 0 1 -0.49742,1.26471 1.7488958,1.7488958 0 0 1 -1.28852,0.48418 z"
       id="path283"
       style="fill:current;stroke-width:0.264583" />
    <path
       class="cls-1"
       d="m 77.047563,199.60973 a 1.6748125,1.6748125 0 0 1 -1.767417,1.77006 1.7753541,1.7753541 0 0 1 -1.293812,-0.48948 1.7092083,1.7092083 0 0 1 -0.502708,-1.28058 V 186.071 H 71.16323 a 1.7224375,1.7224375 0 0 1 -1.796521,-1.79388 1.698625,1.698625 0 0 1 0.502708,-1.28058 1.7753541,1.7753541 0 0 1 1.293813,-0.48948 h 8.339666 a 1.7753541,1.7753541 0 0 1 1.293813,0.48948 1.7065625,1.7065625 0 0 1 0.500062,1.28058 1.7171458,1.7171458 0 0 1 -1.793875,1.79388 h -2.455333 z"
       id="path285"
       style="fill:current;stroke-width:0.264583" />
    <path
       class="cls-1"
       d="m 107.90327,201.43271 a 9.4641457,9.4641457 0 1 1 0,-18.92565 1.7753541,1.7753541 0 0 1 1.29381,0.48948 1.698625,1.698625 0 0 1 0.50271,1.28058 1.7224375,1.7224375 0 0 1 -1.79652,1.79388 5.9002083,5.9002083 0 1 0 0,11.80041 1.7171458,1.7171458 0 0 1 1.79652,1.79388 1.7039166,1.7039166 0 0 1 -0.50271,1.28058 1.7727083,1.7727083 0 0 1 -1.29381,0.48684 z"
       id="path287"
       style="fill:current;stroke-width:0.264583" />
    <path
       class="cls-1"
       d="m 136.54442,182.50706 a 9.3821249,9.3821249 0 1 1 -6.70455,2.74902 9.1254791,9.1254791 0 0 1 6.70455,-2.74902 z m 0,3.56394 a 5.8208333,5.8208333 0 1 0 4.18306,1.70656 5.6938333,5.6938333 0 0 0 -4.18306,-1.70656 z"
       id="path289"
       style="fill:current;stroke-width:0.264583" />
    <path
       class="cls-1"
       d="m 155.83783,201.37979 h -1.15887 a 5.5906458,5.5906458 0 0 1 -5.69913,-5.70971 V 184.293 a 1.6774583,1.6774583 0 0 1 1.76742,-1.77271 1.7832916,1.7832916 0 0 1 1.29381,0.48948 1.7145,1.7145 0 0 1 0.50006,1.28323 v 11.3956 a 2.1166666,2.1166666 0 0 0 2.13784,2.14313 h 1.16152 a 1.7065625,1.7065625 0 0 1 1.28058,0.50006 1.7753541,1.7753541 0 0 1 0.48948,1.29381 1.6748125,1.6748125 0 0 1 -1.77006,1.76742 z"
       id="path291"
       style="fill:current;stroke-width:0.264583" />
    <path
       class="cls-1"
       d="m 170.06712,182.50706 a 9.3821249,9.3821249 0 1 1 -6.70454,2.74902 9.1254791,9.1254791 0 0 1 6.70454,-2.74902 z m 0,3.56394 a 5.8208333,5.8208333 0 1 0 4.191,1.70656 5.6938333,5.6938333 0 0 0 -4.191,-1.70656 z"
       id="path293"
       style="fill:current;stroke-width:0.264583" />
    <path
       class="cls-1"
       d="m 193.98017,190.18791 h 5.64885 a 1.6853958,1.6853958 0 0 1 1.2409,0.5424 1.7409583,1.7409583 0 0 1 0.52916,1.25412 9.4932499,9.4932499 0 1 1 -2.40241,-6.29708 1.6906875,1.6906875 0 0 1 -0.0529,2.45269 1.793875,1.793875 0 0 1 -1.29381,0.54504 1.7224375,1.7224375 0 0 1 -1.29382,-0.64029 5.9742916,5.9742916 0 0 0 -8.60425,-0.28046 5.9240208,5.9240208 0 1 0 9.81869,5.98752 h -3.59039 a 1.7118541,1.7118541 0 0 1 -1.28059,-0.50006 1.7806458,1.7806458 0 0 1 -0.48683,-1.29381 1.6748125,1.6748125 0 0 1 1.76742,-1.77007 z"
       id="path295"
       style="fill:current;stroke-width:0.264583" />
    <path
       class="cls-1"
       d="m 207.86021,184.27977 v 15.32996 a 1.7197916,1.7197916 0 0 1 -0.50271,1.28323 1.7885833,1.7885833 0 0 1 -1.29381,0.48683 1.6721666,1.6721666 0 0 1 -1.76742,-1.77006 v -15.32996 a 1.6774583,1.6774583 0 0 1 1.76742,-1.77271 1.778,1.778 0 0 1 1.29381,0.48948 1.7145,1.7145 0 0 1 0.50271,1.28323 z"
       id="path297"
       style="fill:current;stroke-width:0.264583" />
    <path
       class="cls-1"
       d="m 220.32208,201.43271 a 9.4641457,9.4641457 0 1 1 0,-18.92565 1.7753541,1.7753541 0 0 1 1.29381,0.48948 1.698625,1.698625 0 0 1 0.50271,1.28058 1.7224375,1.7224375 0 0 1 -1.79652,1.79388 5.9002083,5.9002083 0 1 0 0,11.80041 1.7171458,1.7171458 0 0 1 1.79652,1.79388 1.7039166,1.7039166 0 0 1 -0.50271,1.28058 1.7727083,1.7727083 0 0 1 -1.29381,0.48684 z"
       id="path299"
       style="fill:current;stroke-width:0.264583" />
    <path
       class="cls-1"
       d="m 93.782459,201.40625 h -3.39725 a 5.5959374,5.5959374 0 0 1 -5.701771,-5.70971 v -6.38704 a 1.6801041,1.6801041 0 0 1 1.767417,-1.77271 1.7753541,1.7753541 0 0 1 1.293812,0.48948 1.7145,1.7145 0 0 1 0.502708,1.28323 v 6.39233 a 2.1166666,2.1166666 0 0 0 2.137834,2.14313 h 3.407833 a 1.7092083,1.7092083 0 0 1 1.280583,0.5027 1.7753541,1.7753541 0 0 1 0.489479,1.29382 1.6748125,1.6748125 0 0 1 -1.770062,1.76741 z"
       id="path301"
       style="fill:current;stroke-width:0.264583" />
    <path
       class="cls-1"
       d="m 95.063042,182.97008 a 1.730375,1.730375 0 0 1 0.489479,1.27794 1.7753541,1.7753541 0 0 1 -0.489479,1.29381 1.698625,1.698625 0 0 1 -1.280583,0.50271 h -3.39725 a 2.1166666,2.1166666 0 0 0 -2.137834,2.14312 v 5.3975 a 1.7145,1.7145 0 0 1 -0.502708,1.28323 1.7753541,1.7753541 0 0 1 -1.293812,0.48948 1.6801041,1.6801041 0 0 1 -1.767417,-1.77006 v -5.3975 a 5.5985833,5.5985833 0 0 1 5.701771,-5.70971 h 3.407833 a 1.730375,1.730375 0 0 1 1.27,0.48948 z"
       id="path303"
       style="fill:current;stroke-width:0.264583" />
    <path
       class="cls-1"
       d="m 81.564,192.02412 m 3.881438,-1.88912 h 5.569479 a 1.7727083,1.7727083 0 0 1 1.291167,0.48948 1.698625,1.698625 0 0 1 0.502708,1.28058 1.7171458,1.7171458 0 0 1 -1.793875,1.79387 h -5.656792"
       id="path305"
       style="fill:current;stroke-width:0.264583" />
    <path
       class="cls-1"
       d="m 230.08521,185.63973 v 13.3641 a 1.7145,1.7145 0 0 1 -0.50271,1.28323 1.778,1.778 0 0 1 -1.29381,0.48948 1.6774583,1.6774583 0 0 1 -1.76742,-1.77271 v -13.3641 a 1.6774583,1.6774583 0 0 1 1.76742,-1.77271 1.778,1.778 0 0 1 1.29381,0.48948 1.7145,1.7145 0 0 1 0.50271,1.28323 z"
       id="path307"
       style="fill:current;stroke-width:0.264583" />
    <path
       class="cls-1"
       d="m 228.29133,184.5126 a 3.9899166,3.9899166 0 1 1 3.98992,-3.98991 3.9952083,3.9952083 0 0 1 -3.98992,3.98991 z m 0,-5.53244 a 1.5425208,1.5425208 0 1 0 1.54252,1.54253 1.5451666,1.5451666 0 0 0 -1.54252,-1.54253 z"
       id="path309"
       style="fill:current;stroke-width:0.264583" />
    <path
       class="cls-1"
       d="m 230.08521,184.20304 v 15.34583 c 0,0.0556 0,0.13494 0,0.16934 a 1.603375,1.603375 0 0 1 -0.508,1.11125 1.778,1.778 0 0 1 -1.29382,0.48947 1.730375,1.730375 0 0 1 -1.28058,-0.48947 1.6801041,1.6801041 0 0 1 -0.48154,-1.10861 c 0,-0.0556 0,-0.11377 0,-0.17198 v -15.34583 a 1.6748125,1.6748125 0 0 1 1.76742,-1.77006 1.778,1.778 0 0 1 1.29381,0.48948 1.7092083,1.7092083 0 0 1 0.50271,1.28058 z"
       id="path311"
       style="fill:current;stroke-width:0.264583" />
    <path
       class="cls-1"
       d="m 52.401626,188.76446 a 4.1989374,4.1989374 0 1 1 0.08202,0 z m 0,-5.4954 a 1.5213541,1.5213541 0 1 0 1.058333,0.42598 1.5160625,1.5160625 0 0 0 -1.055687,-0.42598 z"
       id="path313"
       style="fill:current;stroke-width:0.264583" />
    <path
       class="cls-1"
       d="m 35.701126,120.70569 c -0.899583,-0.66146 -1.918229,-1.88384 -1.698625,-2.49502 0.08467,-0.21961 0.695854,-0.42334 2.645833,-0.35719 a 1.6298333,1.6298333 0 0 1 0.79375,0.13758 1.6139583,1.6139583 0 0 1 0.833438,2.15371 1.635125,1.635125 0 0 1 -2.021417,0.88371 v 0 c -0.0344,-0.0185 -0.06879,-0.0238 -0.103187,-0.0397 h -0.02117 a 1.476375,1.476375 0 0 1 -0.423333,-0.26458 z"
       id="path315"
       style="fill:current;stroke-width:0.264583" />
    <path
       class="cls-1"
       d="m 42.400376,117.92227 c 0.264583,-1.08744 0.264583,-2.67758 -0.309563,-3.00302 -0.206375,-0.11377 -0.79375,0.12435 -2.25425,1.43404 a 1.6404166,1.6404166 0 0 0 -0.529166,0.61648 1.6324791,1.6324791 0 0 0 2.865437,1.5584 l 0.01323,-0.0185 a 0.38364583,0.38364583 0 0 0 0.04763,-0.0847 v -0.0238 a 1.5107708,1.5107708 0 0 0 0.148167,-0.4789 z"
       id="path317"
       style="fill:current;stroke-width:0.264583" />
    <path
       class="cls-1"
       d="M 49.046709,134.46666 H 45.559501 A 5.5562499,5.5562499 0 0 1 39.894772,128.794 v -1.57163 a 1.666875,1.666875 0 0 1 1.756833,-1.75948 1.7727083,1.7727083 0 0 1 1.285875,0.48419 1.7092083,1.7092083 0 0 1 0.497417,1.27529 v 1.5875 a 2.1166666,2.1166666 0 0 0 2.116666,2.11667 h 3.077105 l 0.407458,0.0344 c 0.198437,0.0503 0.388937,0.0423 0.555625,0.0873 a 1.4975416,1.4975416 0 0 1 0.719667,0.36777 c 0.322791,0.33337 -1.91823,0.762 -1.91823,1.28587 0,0.52388 2.241021,0.94721 1.91823,1.27265 a 1.7277291,1.7277291 0 0 1 -1.264709,0.49212 z"
       id="path319"
       style="fill:current;stroke-width:0.264583" />
    <path
       class="cls-1"
       d="m 41.437293,127.83356 a 3.96875,3.96875 0 1 1 3.96875,-3.96875 3.96875,3.96875 0 0 1 -3.96875,3.96875 z m 0,-5.49275 a 1.524,1.524 0 1 0 1.524,1.524 1.5266458,1.5266458 0 0 0 -1.524,-1.524 z"
       id="path321"
       style="fill:current;stroke-width:0.264583" />
    <path
       class="cls-1"
       d="m 50.433126,155.71006 v -17.99167 a 1.7092083,1.7092083 0 0 1 0.497417,-1.27529 1.7674166,1.7674166 0 0 1 1.285874,-0.48419 1.666875,1.666875 0 0 1 1.756834,1.75684 v 17.99166 c -0.01058,1.60867 -3.540125,0.59796 -3.540125,0.003 z"
       id="path323"
       style="fill:current;stroke-width:0.264583" />
    <path
       class="cls-1"
       d="m 47.316334,130.92654 h 0.981604 a 5.5562499,5.5562499 0 0 1 5.664729,5.67267 v 17.01006 a 1.6695208,1.6695208 0 0 1 -1.756833,1.75948 1.7700625,1.7700625 0 0 1 -1.285875,-0.48684 1.7012708,1.7012708 0 0 1 -0.497416,-1.27264 v -17.01536 a 2.1166666,2.1166666 0 0 0 -2.116667,-2.11666 h -0.981604 a 1.7065625,1.7065625 0 0 1 -1.272646,-0.49742 1.7727083,1.7727083 0 0 1 -0.484188,-1.28587 1.6615833,1.6615833 0 0 1 1.756834,-1.75684 z"
       id="path325"
       style="fill:current;stroke-width:0.264583" />
    <path
       class="cls-1"
       d="M 57.047709,146.94971"
       id="path327"
       style="fill:current;stroke-width:0.264583" />
    <path
       class="cls-1"
       d="m 40.378959,153.43464 c -2.058458,-1.2647 -1.949979,-2.77548 -1.949979,-4.38414 v -1.57427 a 1.6695208,1.6695208 0 0 1 1.756833,-1.75948 1.7700625,1.7700625 0 0 1 1.285875,0.48683 1.7012708,1.7012708 0 0 1 0.497417,1.27265 v 1.5875 a 2.0584583,2.0584583 0 0 0 0.616479,1.51077 12.361333,12.361333 0 0 0 1.418167,1.143 c 0,0 -1.949979,2.29658 -3.214688,1.91029 a 2.6722916,2.6722916 0 0 1 -0.410104,-0.19315 z"
       id="path329"
       style="fill:current;stroke-width:0.264583" />
    <path
       class="cls-1"
       d="m 39.960918,148.08477 a 3.96875,3.96875 0 1 1 3.96875,-3.96875 3.96875,3.96875 0 0 1 -3.96875,3.96875 z m 0,-5.49275 a 1.524,1.524 0 1 0 1.524,1.524 1.5266458,1.5266458 0 0 0 -1.524,-1.52929 z"
       id="path331"
       style="fill:current;stroke-width:0.264583" />
    <path
       class="cls-1"
       d="m 56.682584,150.62477 a 1.730375,1.730375 0 0 1 -0.486833,-1.27265 1.7727083,1.7727083 0 0 1 0.486833,-1.28587 1.6959791,1.6959791 0 0 1 1.27,-0.49742 h 0.664104 a 2.1166666,2.1166666 0 0 0 2.116667,-2.11667 v -8.70479 a 1.6933333,1.6933333 0 0 1 0.500062,-1.27264 1.7515416,1.7515416 0 0 1 1.28323,-0.48684 1.666875,1.666875 0 0 1 1.756833,1.75948 v 8.68892 a 5.5562499,5.5562499 0 0 1 -5.664729,5.67267 h -0.664104 a 1.7171458,1.7171458 0 0 1 -1.262063,-0.48419 z"
       id="path333"
       style="fill:current;stroke-width:0.264583" />
    <path
       class="cls-1"
       d="m 62.672751,137.17864 a 3.96875,3.96875 0 1 1 2.862791,-1.21708 3.96875,3.96875 0 0 1 -2.862791,1.21708 z m 0,-5.49275 h -0.0291 a 1.5160625,1.5160625 0 0 0 -1.058334,0.46832 v 0 a 1.5213541,1.5213541 0 0 0 0.04233,2.1537 1.5425208,1.5425208 0 0 0 1.084791,0.42598 1.5240695,1.5240695 0 0 0 -0.0291,-3.048 z"
       id="path335"
       style="fill:current;stroke-width:0.264583" />
    <path
       class="cls-1"
       d="M 50.634209,182.06256 V 154.3501 a 1.6695208,1.6695208 0 0 1 1.756833,-1.75948 1.7727083,1.7727083 0 0 1 1.285875,0.48684 1.7092083,1.7092083 0 0 1 0.497417,1.27529 v 27.71246 c 0,0.59531 -3.540125,1.60602 -3.540125,-0.003 z"
       id="path337"
       style="fill:current;stroke-width:0.264583" />
    <path
       class="cls-1"
       d="m 57.952584,151.10896 m 0,0 h -1.653646 a 2.1166666,2.1166666 0 0 0 -2.116666,2.11666 v 26.72292 a 1.7092083,1.7092083 0 0 1 -0.497417,1.27529 1.7727083,1.7727083 0 0 1 -1.285875,0.48419 1.666875,1.666875 0 0 1 -1.756833,-1.75948 v -26.72292 a 5.5562499,5.5562499 0 0 1 5.664729,-5.67266 h 1.653646 m 0,0"
       id="path339"
       style="fill:current;stroke-width:0.264583" />
    <path
       class="cls-1"
       d="M 50.618334,153.46904"
       id="path341"
       style="fill:current;stroke-width:0.264583" />
    <path
       class="cls-1"
       d="m 42.712584,150.75441 10.337271,5.59065 c 0.494771,0.37306 -0.592667,4.23333 -2.092854,2.93688 l -10.355792,-5.74675 m 0,0 c -0.425979,-0.30957 1.688042,-3.10092 2.116667,-2.79136"
       id="path343"
       style="fill:current;stroke-width:0.264583" />
    <path
       class="cls-1"
       d="m 46.850668,139.46994 c -0.899584,-0.66146 -1.91823,-1.88384 -1.69598,-2.49503 0.08467,-0.2196 0.695855,-0.42333 2.645834,-0.35718 a 1.6404166,1.6404166 0 0 1 0.79375,0.13758 1.6139583,1.6139583 0 0 1 0.830791,2.15371 1.635125,1.635125 0 0 1 -2.01877,0.88371 h -0.01588 l -0.100542,-0.0397 h -0.02117 a 1.5875,1.5875 0 0 1 -0.423333,-0.26458 z"
       id="path345"
       style="fill:current;stroke-width:0.264583" />
    <path
       class="cls-1"
       d="m 45.805563,150.2226 c 0.899584,-0.66146 1.91823,-1.88383 1.698625,-2.49502 -0.08467,-0.2196 -0.695854,-0.42333 -2.645833,-0.35719 a 1.635125,1.635125 0 1 0 0.391583,3.175 v 0 c 0.03704,-0.0132 0.07408,-0.0238 0.10848,-0.0397 h 0.02117 a 1.5875,1.5875 0 0 0 0.423334,-0.26459 z"
       id="path347"
       style="fill:current;stroke-width:0.264583" />
    <path
       class="cls-1"
       d="m 68.070251,140.85371 c 0.899583,-0.66411 1.918229,-1.88384 1.695979,-2.49502 -0.08467,-0.22225 -0.695854,-0.42598 -2.645834,-0.35719 a 1.6324791,1.6324791 0 1 0 0.388938,3.175 v 0 c 0.03175,-0.0159 0.0635,-0.0159 0.0979,-0.0344 a 0.05027083,0.05027083 0 0 1 0.0291,0 1.508125,1.508125 0 0 0 0.423333,-0.26458 z"
       id="path349"
       style="fill:current;stroke-width:0.264583" />
    <path
       class="cls-1"
       d="m 68.070251,145.27225 c 0.899583,-0.66146 1.918229,-1.88384 1.695979,-2.49502 -0.08467,-0.22225 -0.695854,-0.42598 -2.645834,-0.35719 a 1.6642291,1.6642291 0 0 0 -0.79375,0.13494 1.61925,1.61925 0 0 0 -0.830791,2.15635 1.635125,1.635125 0 0 0 2.018771,0.88371 h 0.01323 c 0.03175,-0.0185 0.0635,-0.0212 0.0979,-0.037 0.0344,-0.0159 0.02646,-0.0132 0.02646,-0.0132 a 1.508125,1.508125 0 0 0 0.423333,-0.26458 z"
       id="path351"
       style="fill:current;stroke-width:0.264583" />
    <path
       class="cls-1"
       d="m 34.706293,150.2226 c -0.899584,-0.66146 -1.918229,-1.88383 -1.695979,-2.49502 0.08467,-0.2196 0.695854,-0.42333 2.645833,-0.35719 a 1.635125,1.635125 0 0 1 0.79375,0.13759 1.6139583,1.6139583 0 0 1 0.830792,2.15371 1.635125,1.635125 0 0 1 -2.018771,0.8837 v 0 c -0.0344,-0.0159 -0.06879,-0.0185 -0.103188,-0.0344 h -0.02381 a 1.5875,1.5875 0 0 1 -0.423334,-0.26459 z"
       id="path353"
       style="fill:current;stroke-width:0.264583" />
  </g>
</svg>
