<?xml version="1.0" encoding="UTF-8" standalone="no"?>
<!-- Created with Inkscape (http://www.inkscape.org/) -->

<svg
   width="28.014486mm"
   height="67.834846mm"
   viewBox="0 0 28.014486 67.834846"
   version="1.1"
   id="svg572"
   xmlns="http://www.w3.org/2000/svg">
  <defs
     id="defs569" />
  <g
     id="layer1"
     transform="translate(42.079075,-17.173313)">
    <path
       class="cls-1"
       d="m -22.479862,39.785577 m 0,0 h -1.227667 a 1.5663333,1.5663333 0 0 0 -1.5875,1.5875 v 10.583334 a 1.2647083,1.2647083 0 0 1 -0.370416,0.947208 1.3070417,1.3070417 0 0 1 -0.955146,0.362479 1.2435417,1.2435417 0 0 1 -1.304396,-1.307042 V 41.375723 a 4.1301458,4.1301458 0 0 1 4.209521,-4.212166 h 1.227666 m 0,0"
       id="path6"
       style="fill:current;stroke-width:0.264583" />
    <path
       class="cls-1"
       d="M -27.927633,41.542411"
       id="path8"
       style="fill:current;stroke-width:0.264583" />
    <path
       class="cls-1"
       d="m -23.294779,66.968869 h 0.762 a 4.1301458,4.1301458 0 0 1 4.201584,4.198937 v 8.202083 a 1.2356042,1.2356042 0 0 1 -1.304396,1.307042 1.3043958,1.3043958 0 0 1 -0.955146,-0.359833 1.2647083,1.2647083 0 0 1 -0.370417,-0.947209 v -8.202083 a 1.5292916,1.5292916 0 0 0 -0.457729,-1.121833 1.5134166,1.5134166 0 0 0 -1.119187,-0.457729 h -0.762 a 1.2647083,1.2647083 0 0 1 -0.944563,-0.370417 c -0.240771,-0.248708 1.426104,-0.566208 1.426104,-0.955146 0,-0.388937 -1.666875,-0.703792 -1.426104,-0.944562 a 1.2752917,1.2752917 0 0 1 0.949854,-0.34925 z"
       id="path10"
       style="fill:current;stroke-width:0.264583" />
    <path
       class="cls-1"
       d="m -19.468904,85.00816 a 2.9501041,2.9501041 0 1 1 2.947459,-2.958042 2.95275,2.95275 0 0 1 -2.947459,2.958042 z m 0,-4.082521 a 1.1324167,1.1324167 0 1 0 1.137709,1.124479 1.1324167,1.1324167 0 0 0 -1.137709,-1.124479 z"
       id="path12"
       style="fill:current;stroke-width:0.264583" />
    <path
       class="cls-1"
       d="m -22.940237,69.585598 h -0.73025 a 4.1301458,4.1301458 0 0 1 -4.209521,-4.204229 l -0.03704,-12.305771 a 1.2408958,1.2408958 0 0 1 1.307042,-1.307042 1.3043958,1.3043958 0 0 1 0.9525,0.359834 1.2647083,1.2647083 0 0 1 0.370417,0.947208 l 0.03704,12.308417 a 1.5663333,1.5663333 0 0 0 1.5875,1.587499 h 0.73025 a 1.2514792,1.2514792 0 0 1 0.941917,0.367771 1.3229166,1.3229166 0 0 1 0.362479,0.955146 1.2435417,1.2435417 0 0 1 -1.304396,1.307042 z"
       id="path14"
       style="fill:current;stroke-width:0.264583" />
    <path
       class="cls-1"
       d="M -30.173945,63.33614"
       id="path16"
       style="fill:current;stroke-width:0.264583" />
    <path
       class="cls-1"
       d="m -19.206966,29.535619 a 2.9474583,2.9474583 0 0 1 -2.116667,-4.992687 v 0 a 2.9501041,2.9501041 0 1 1 2.116667,4.992687 z m 0,-4.079875 a 1.1244792,1.1244792 0 0 0 -0.817563,0.346604 v 0 a 1.1350625,1.1350625 0 1 0 0.817563,-0.346604 z"
       id="path18"
       style="fill:current;stroke-width:0.264583" />
    <path
       class="cls-1"
       d="m -27.546633,27.889911 h -2.590271 a 4.1301458,4.1301458 0 0 1 -4.20952,-4.214813 v -1.156229 a 1.2435417,1.2435417 0 0 1 1.307041,-1.307041 1.3043958,1.3043958 0 0 1 0.9525,0.362479 1.2567708,1.2567708 0 0 1 0.370417,0.947208 v 1.169458 a 1.5663333,1.5663333 0 0 0 1.5875,1.5875 h 2.590271 a 1.254125,1.254125 0 0 1 0.944562,0.370417 c 0.240771,0.246063 -1.423458,0.563562 -1.423458,0.9525 0,0.388937 1.664229,0.706437 1.423458,0.944562 a 1.2779375,1.2779375 0 0 1 -0.9525,0.343959 z"
       id="path20"
       style="fill:current;stroke-width:0.264583" />
    <path
       class="cls-1"
       d="m -26.533279,38.809265 v -8.511646 a 1.2647083,1.2647083 0 0 1 0.370417,-0.944562 1.3229166,1.3229166 0 0 1 0.955146,-0.36248 1.23825,1.23825 0 0 1 1.320271,1.307042 v 8.509 c 0,1.195917 -2.645834,0.4445 -2.645834,0.0026 z"
       id="path22"
       style="fill:current;stroke-width:0.264583" />
    <path
       class="cls-1"
       d="m -28.832508,25.259953 h 0.73025 a 4.1274999,4.1274999 0 0 1 4.214813,4.212166 v 7.776104 a 1.2356042,1.2356042 0 0 1 -1.304396,1.307042 1.3229166,1.3229166 0 0 1 -0.955146,-0.359833 1.27,1.27 0 0 1 -0.370417,-0.947209 v -7.77875 a 1.5636875,1.5636875 0 0 0 -1.5875,-1.5875 h -0.73025 a 1.2647083,1.2647083 0 0 1 -0.944562,-0.370416 1.3229166,1.3229166 0 0 1 -0.359833,-0.955146 1.2356042,1.2356042 0 0 1 1.304395,-1.304396 z"
       id="path24"
       style="fill:current;stroke-width:0.264583" />
    <path
       class="cls-1"
       d="M -21.601445,32.308452"
       id="path26"
       style="fill:current;stroke-width:0.264583" />
    <path
       class="cls-1"
       d="m -36.994904,39.020932 c -1.473729,-1.023938 -1.484312,-2.079625 -1.484312,-3.278188 v -3.434292 a 1.2435417,1.2435417 0 0 1 1.307042,-1.307041 1.3043958,1.3043958 0 0 1 0.9525,0.362479 1.2647083,1.2647083 0 0 1 0.370416,0.947208 v 3.439584 a 1.5319375,1.5319375 0 0 0 0.457729,1.121833 8.9693749,8.9693749 0 0 0 1.058334,0.846667 c 0,0 -1.725084,1.952624 -2.661709,1.30175 z"
       id="path28"
       style="fill:current;stroke-width:0.264583" />
    <path
       class="cls-1"
       d="m -37.33357,32.76089 a 2.9501041,2.9501041 0 1 1 2.950104,-2.950104 2.95275,2.95275 0 0 1 -2.950104,2.950104 z m 0,-4.082521 a 1.1324167,1.1324167 0 1 0 1.132416,1.132417 1.1324167,1.1324167 0 0 0 -1.132416,-1.132417 z"
       id="path30"
       style="fill:current;stroke-width:0.264583" />
    <path
       class="cls-1"
       d="m -23.424425,39.425744 a 1.2752917,1.2752917 0 0 1 -0.359833,-0.944562 1.3229166,1.3229166 0 0 1 0.359833,-0.955146 1.2620625,1.2620625 0 0 1 0.944563,-0.367771 h 0.494771 a 1.5663333,1.5663333 0 0 0 1.5875,-1.5875 v -6.453188 a 1.2647083,1.2647083 0 0 1 0.370416,-0.947208 1.3229166,1.3229166 0 0 1 0.955146,-0.359833 1.2356042,1.2356042 0 0 1 1.304396,1.307041 v 6.455834 a 4.1274999,4.1274999 0 0 1 -4.206875,4.212166 h -0.494771 a 1.2752917,1.2752917 0 0 1 -0.955146,-0.359833 z"
       id="path32"
       style="fill:current;stroke-width:0.264583" />
    <path
       class="cls-1"
       d="M -27.91705,53.520098 V 42.195931 a 1.23825,1.23825 0 0 1 1.304396,-1.307041 1.3229166,1.3229166 0 0 1 0.955146,0.359833 1.27,1.27 0 0 1 0.370417,0.947208 v 11.326813 c 0,0.4445 -2.629959,1.195916 -2.629959,-0.0026 z"
       id="path34"
       style="fill:current;stroke-width:0.264583" />
    <path
       class="cls-1"
       d="m -27.670987,45.802202 -9.162521,-6.65427 a 1.2408958,1.2408958 0 0 1 -0.283104,-1.812396 1.3229166,1.3229166 0 0 1 0.854604,-0.558271 1.2647083,1.2647083 0 0 1 0.981604,0.264583 l 9.157229,6.643688 c 0.359834,0.264583 -0.579437,2.828395 -1.547812,2.116666 z"
       id="path36"
       style="fill:current;stroke-width:0.264583" />
    <path
       class="cls-1"
       d="m -28.853675,35.314119 c -0.669395,-0.492125 -1.426104,-1.399646 -1.262062,-1.852083 0.0635,-0.164042 0.529167,-0.314854 1.9685,-0.264584 a 1.2144375,1.2144375 0 1 1 -0.291042,2.357438 v 0.01323 c -0.02381,-0.01323 -0.0635,-0.02646 -0.08731,-0.03704 a 0.006615,0 0 0 0 -0.01323,0 1.1297708,1.1297708 0 0 1 -0.314855,-0.201083 z"
       id="path38"
       style="fill:current;stroke-width:0.264583" />
    <path
       class="cls-1"
       d="m -28.853675,31.707848 c -0.669395,-0.492125 -1.426104,-1.399646 -1.262062,-1.852083 0.0635,-0.164042 0.529167,-0.314854 1.9685,-0.264583 a 1.2144375,1.2144375 0 1 1 -0.291042,2.357437 v 0.01323 c -0.02381,-0.01323 -0.0635,-0.02381 -0.08731,-0.03704 a 0.006615,0 0 0 0 -0.01323,0 1.1297708,1.1297708 0 0 1 -0.314855,-0.201084 z"
       id="path40"
       style="fill:current;stroke-width:0.264583" />
    <path
       class="cls-1"
       d="m -15.349341,31.911577 c 0.669395,-0.492125 1.426104,-1.399645 1.262062,-1.852083 -0.0635,-0.164042 -0.529167,-0.314854 -1.9685,-0.264583 a 1.2435417,1.2435417 0 0 0 -0.592666,0.100541 1.2118704,1.2118704 0 0 0 0.883708,2.256896 v 0 c 0.02646,0 0.0635,-0.02381 0.08731,-0.03704 a 0.00935502,0 135 0 0 0.01323,-0.01323 1.0715625,1.0715625 0 0 0 0.314855,-0.201083 z"
       id="path42"
       style="fill:current;stroke-width:0.264583" />
    <path
       class="cls-1"
       d="m -15.349341,35.417307 c 0.669395,-0.492125 1.426104,-1.399646 1.262062,-1.852084 -0.0635,-0.164041 -0.529167,-0.314854 -1.9685,-0.264583 a 1.2144375,1.2144375 0 1 0 0.291042,2.357437 v 0 l 0.08731,-0.03704 a 0.00935502,0 135 0 0 0.01323,-0.01323 1.1297708,1.1297708 0 0 0 0.314855,-0.201084 z"
       id="path44"
       style="fill:current;stroke-width:0.264583" />
    <path
       class="cls-1"
       d="m -36.701216,22.651161 c -0.79375,-0.230188 -1.817688,-0.822854 -1.820333,-1.307042 0,-0.174625 0.375708,-0.473604 1.756833,-0.923396 a 1.2144375,1.2144375 0 0 1 1.719792,1.182688 1.2117917,1.2117917 0 0 1 -1.182688,1.129771 v 0 h -0.0979 c 0,0 -0.01588,0 -0.01588,0 a 1.0583333,1.0583333 0 0 1 -0.365125,-0.08202 z"
       id="path46"
       style="fill:current;stroke-width:0.264583" />
    <path
       class="cls-1"
       d="m -32.835654,18.573932 c -0.4445,-0.701146 -1.299104,-1.518709 -1.762125,-1.386417 -0.169333,0.05292 -0.351895,0.494771 -0.39952,1.944688 a 1.1826875,1.1826875 0 0 0 0.06085,0.597958 1.2012083,1.2012083 0 0 0 1.55575,0.727604 1.2170833,1.2170833 0 0 0 0.762,-1.452562 v 0 c 0,-0.02646 -0.02117,-0.0635 -0.03175,-0.08996 a 1.143,1.143 0 0 0 -0.179917,-0.328083 z"
       id="path48"
       style="fill:current;stroke-width:0.264583" />
    <path
       class="cls-1"
       d="m -40.796966,36.631744 c -0.66675,-0.489479 -1.423458,-1.399646 -1.259417,-1.852083 0.0635,-0.164042 0.515938,-0.314854 1.965854,-0.264584 a 1.2144375,1.2144375 0 1 1 -0.288395,2.357438 v 0.01323 l -0.08996,-0.03969 a 1.1297708,1.1297708 0 0 1 -0.3175,-0.20373 z"
       id="path50"
       style="fill:current;stroke-width:0.264583" />
  </g>
</svg>
