<?xml version="1.0" encoding="UTF-8" standalone="no"?>
<!-- Created with Inkscape (http://www.inkscape.org/) -->

<svg
   width="16.229572mm"
   height="57.625912mm"
   viewBox="0 0 16.229572 57.625912"
   version="1.1"
   id="svg720"
   xmlns="http://www.w3.org/2000/svg">
  <defs
     id="defs717" >
    <style>
         .moving{
            animation: moving 3s infinite alternate ease-in-out;
         }
         @keyframes moving{
            0%{
               transform:rotate(-6deg);
            }
            100%{
               transform:rotate(6deg);
            }
         }
      </style>
  </defs> 
  <g
     id="layer1"
     transform="translate(59.76696,-21.154904)">
    <path
       class="cls-1"
       d="m -56.856374,70.479408 c -1.661583,0.584729 -2.88925,2.172229 -2.910416,3.918479 a 4.3444583,4.3444583 0 1 0 5.789083,-4.058708 v -5.876396 l 3.704166,-3.704167 a 1.4075833,1.4075833 0 0 0 0.433917,-1.010708 V 35.1152 a 4.3444583,4.3444583 0 1 0 -2.88925,0 v 24.13 l -3.704166,3.704166 a 1.4102291,1.4102291 0 0 0 -0.433917,1.010708 v 6.516688 z m 4.135438,-39.40175 a 1.4472708,1.4472708 0 1 1 1.44727,1.444625 1.4525625,1.4525625 0 0 1 -1.44727,-1.444625 z m -4.124854,43.463104 a 1.444625,1.444625 0 1 1 1.444624,1.444625 1.4499166,1.4499166 0 0 1 -1.444624,-1.444625 z"
       id="path138"
       style="fill:current;stroke-width:0.264583" />
    <path
       class="cls-1"
       d="m -55.813916,50.421345 c -0.743479,-0.545041 -1.587499,-1.55575 -1.402291,-2.061104 0.06879,-0.182562 0.574146,-0.34925 2.188104,-0.293687 a 1.3229166,1.3229166 0 0 1 0.658812,0.111125 1.3361458,1.3361458 0 0 1 0.687917,1.780646 1.3520208,1.3520208 0 0 1 -1.669521,0.73025 v 0 c -0.0291,0 -0.07144,-0.02646 -0.0979,-0.04233 a 0.00935502,0 45 0 0 -0.01323,-0.01323 1.2012083,1.2012083 0 0 1 -0.351896,-0.224896 z"
       id="path140"
       style="fill:current;stroke-width:0.264583" />
       <g class="moving" style="animation-duration:2.5s">
    <path
       class="cls-1"
       d="m -55.813916,46.410262 c -0.743479,-0.545041 -1.587499,-1.55575 -1.402291,-2.061104 0.06879,-0.182562 0.574146,-0.34925 2.188104,-0.293687 a 1.3229166,1.3229166 0 0 1 0.658812,0.111125 1.349375,1.349375 0 0 1 -0.981604,2.510895 v 0.01323 l -0.0979,-0.03969 a 0.01322917,0.01322917 0 0 0 -0.01323,-0.01588 1.2012083,1.2012083 0 0 1 -0.351896,-0.224896 z"
       id="path142"
       style="fill:current;stroke-width:0.264583" />
       </g>
    <path
       class="cls-1"
       d="m -45.579832,25.579617 c 1.658937,0.79375 2.079625,1.240895 2.039937,1.455208 -0.07144,0.613833 -1.457854,1.185333 -2.500312,1.341437 a 2.047875,2.047875 0 0 1 -0.473604,0.03969 0.015875,0.015875 0 0 1 -0.02117,0 c -0.0344,0 -0.08467,0 -0.121708,0 v 0 a 1.5319375,1.5319375 0 0 1 -1.296459,-1.624542 1.5504583,1.5504583 0 0 1 1.640417,-1.434041 1.5107708,1.5107708 0 0 1 0.724958,0.238125 z"
       id="path144"
       style="fill:current;stroke-width:0.264583" />
    <path
       class="cls-1"
       d="m -47.654166,23.322721 a 1.5160625,1.5160625 0 0 1 0.174625,0.740833 1.539875,1.539875 0 0 1 -3.074458,0.08731 h -0.01588 c 0,-0.03704 0,-0.08731 0,-0.124355 a 0.015875,0.015875 0 0 1 0,-0.02117 2.0663958,2.0663958 0 0 1 0.07937,-0.468313 c 0.243417,-1.023937 0.928688,-2.357437 1.547813,-2.38125 0.216958,-0.02381 0.619125,0.433917 1.277937,2.153709 z"
       id="path146"
       style="fill:current;stroke-width:0.264583" />
  </g>
</svg>
