<?xml version="1.0" encoding="UTF-8" standalone="no"?>
<!-- Created with Inkscape (http://www.inkscape.org/) -->

<svg
   width="16.208275mm"
   height="47.439743mm"
   viewBox="0 0 16.208275 47.439743"
   version="1.1"
   id="svg778"
   xmlns="http://www.w3.org/2000/svg">
  <defs
     id="defs775" />
  <g
     id="layer1"
     transform="translate(-81.164294,-132.3595)">
    <path
       class="cls-1"
       d="m 94.483293,171.5371 v -6.51669 a 1.4102291,1.4102291 0 0 0 -0.433917,-1.01071 l -3.704166,-3.70416 v -13.9753 a 4.3444583,4.3444583 0 1 0 -2.88925,0 v 14.4833 a 1.4075833,1.4075833 0 0 0 0.433916,1.0107 l 3.690938,3.69094 v 5.88169 a 4.3285833,4.3285833 0 1 0 5.791729,4.05871 c 0,-1.74625 -1.23825,-3.33375 -2.910417,-3.91848 z m -5.582708,-27.813 a 1.4472708,1.4472708 0 1 1 1.434041,-1.4314 1.4525625,1.4525625 0 0 1 -1.434041,1.4314 z m 4.1275,33.31898 a 1.444625,1.444625 0 1 1 1.444625,-1.44463 1.4499166,1.4499166 0 0 1 -1.444625,1.44463 z"
       id="path148"
       style="fill:current;stroke-width:0.264583" />
    <path
       class="cls-1"
       d="m 93.440835,155.9452 c 0.743479,-0.54768 1.5875,-1.55839 1.402291,-2.0611 -0.07144,-0.18256 -0.574146,-0.3519 -2.188104,-0.29633 a 1.349375,1.349375 0 0 0 -0.658812,0.11377 1.3229166,1.3229166 0 0 0 -0.687917,1.78064 1.349375,1.349375 0 0 0 1.669521,0.73025 v 0 l 0.0979,-0.0423 a 0.00934442,0 135.06503 0 0 0.01323,-0.0132 1.2356042,1.2356042 0 0 0 0.351896,-0.2249 z"
       id="path150"
       style="fill:current;stroke-width:0.264583" />
    <path
       class="cls-1"
       d="m 93.440835,151.93412 c 0.743479,-0.54769 1.5875,-1.55575 1.402291,-2.0611 -0.07144,-0.18257 -0.574146,-0.3519 -2.188104,-0.29634 a 1.349375,1.349375 0 0 0 -0.658812,0.11377 1.3229166,1.3229166 0 0 0 -0.687917,1.78065 1.349375,1.349375 0 0 0 1.669521,0.73025 v 0.0132 l 0.0979,-0.0423 a 0.00934442,0 135.06503 0 0 0.01323,-0.0132 1.2356042,1.2356042 0 0 0 0.351896,-0.2249 z"
       id="path152"
       style="fill:current;stroke-width:0.264583" />
    <path
       class="cls-1"
       d="m 83.204106,136.78143 c -1.658938,0.79375 -2.07698,1.23825 -2.037292,1.45256 0.06879,0.61384 1.457854,1.18798 2.497667,1.34409 a 2.2172083,2.2172083 0 0 0 0.473604,0.0397 0.02116667,0.02116667 0 0 0 0.02381,0 c 0.0344,0 0.08467,0 0.121709,0 v -0.0159 a 1.539875,1.539875 0 1 0 -1.071563,-2.81781 z"
       id="path154"
       style="fill:current;stroke-width:0.264583" />
    <path
       class="cls-1"
       d="m 85.281085,134.52189 a 1.539875,1.539875 0 1 0 2.910416,0.83079 h 0.01323 c 0,-0.0344 0,-0.0847 0,-0.12171 a 0.01852083,0.01852083 0 0 0 0,-0.0212 2.2251458,2.2251458 0 0 0 -0.07937,-0.46832 c -0.243417,-1.02393 -0.931334,-2.36008 -1.547813,-2.38125 -0.216958,-0.0212 -0.619125,0.43392 -1.277937,2.15371 z"
       id="path156"
       style="fill:current;stroke-width:0.264583" />
  </g>
</svg>
