<?xml version="1.0" encoding="UTF-8" standalone="no"?>
<!-- Created with Inkscape (http://www.inkscape.org/) -->

<svg
   width="57.557518mm"
   height="54.941803mm"
   viewBox="0 0 57.557518 54.941803"
   version="1.1"
   id="svg933"
   xmlns="http://www.w3.org/2000/svg">
  <defs
     id="defs930" />
  <g
     id="layer1"
     transform="translate(-112.14168,-53.937498)">
    <path
       class="cls-1"
       d="M 120.40154,65.598644"
       id="path69"
       style="fill:current;stroke-width:0.264583" />
    <path
       class="cls-1"
       d="m 112.50373,67.934914 v 0 a 1.6324791,1.6324791 0 0 1 1.21972,-0.635 l 3.43959,-0.150812 a 0.66410416,0.66410416 0 0 0 0.26458,-0.206375 l 0.22225,-0.291042 a 0.65352083,0.65352083 0 0 1 1.05833,0.04498 v 0 a 0.64822916,0.64822916 0 0 1 -0.0265,0.751417 l -0.21696,0.28575 a 1.984375,1.984375 0 0 1 -0.65088,0.552979 0.70114582,0.70114582 0 0 1 -0.28575,0.07144 l -3.72533,0.161395 a 0.62970833,0.62970833 0 0 0 -0.26458,0.206375 l -0.22225,0.288396 a 0.65352083,0.65352083 0 0 1 -0.91811,0.124354 v 0 a 0.65616666,0.65616666 0 0 1 -0.12171,-0.918104 z"
       id="path71"
       style="fill:current;stroke-width:0.264583" />
    <path
       class="cls-1"
       d="m 145.26708,63.635435 v 0 a 2.6008541,2.6008541 0 0 0 -0.46302,2.153709 l 1.23825,5.376333 a 1.0715625,1.0715625 0 0 1 -0.20638,0.492125 l -2.94481,4.087812 c 0.77788,0 0.96044,0.719667 1.68275,1.058334 l 2.9501,-3.868209 a 3.2014583,3.2014583 0 0 0 0.5768,-1.23825 1.0900833,1.0900833 0 0 0 0,-0.470958 l -1.32292,-5.820833 a 1.0398125,1.0398125 0 0 1 0.20637,-0.492125 l 2.88132,-3.783542 -1.70657,-1.277937 z"
       id="path73"
       style="fill:current;stroke-width:0.264583" />
    <path
       class="cls-1"
       d="m 144.33839,77.282643 a 2.9289375,2.9289375 0 0 1 -0.83344,-0.640291 c -0.28045,-0.277813 -0.39687,-0.375709 -0.62177,-0.375709 h -1.01335 l 3.54277,-4.92125 a 0.55562499,0.55562499 0 0 0 0.0873,-0.171979 l -1.20385,-5.265208 a 3.127375,3.127375 0 0 1 0.55562,-2.584979 l 3.20146,-4.206875 2.51619,1.918229 -3.20411,4.204229 a 0.52916666,0.52916666 0 0 0 -0.0873,0.169334 l 1.30704,5.712354 a 1.5875,1.5875 0 0 1 0,0.701145 3.7385625,3.7385625 0 0 1 -0.66939,1.439334 l -3.19617,4.209521 z m 3.91054,-16.700499 -2.56646,3.368145 a 2.079625,2.079625 0 0 0 -0.37041,1.722438 l 1.25941,5.471583 -0.0132,0.0926 a 1.5636875,1.5636875 0 0 1 -0.29898,0.724959 v 0 l -2.52413,3.505729 a 3.0532916,3.0532916 0 0 1 0.51329,0.439208 c 0.0688,0.06879 0.13759,0.137583 0.20902,0.201083 l 2.64584,-3.47927 a 2.6934583,2.6934583 0 0 0 0.48418,-1.034521 0.58472916,0.58472916 0 0 0 0,-0.240771 l -1.35202,-5.916083 v -0.09525 a 1.5875,1.5875 0 0 1 0.30957,-0.735542 l 2.56645,-3.368146 z"
       id="path75"
       style="fill:current;stroke-width:0.264583" />
    <path
       class="cls-1"
       d="m 127.4421,87.037831 v 0 a 2.6061458,2.6061458 0 0 1 1.95527,-1.018646 l 5.51127,-0.240771 a 1.0583333,1.0583333 0 0 0 0.41804,-0.328083 l 3.02154,-3.96875 c 0.20903,0.748771 1.08744,0.777875 1.61661,1.381125 l -2.94746,3.870854 a 3.175,3.175 0 0 1 -1.03981,0.883708 1.0583333,1.0583333 0 0 1 -0.45773,0.113771 l -5.969,0.264583 a 1.0583333,1.0583333 0 0 0 -0.41804,0.328084 l -2.88396,3.783541 -1.68804,-1.285875 z"
       id="path77"
       style="fill:current;stroke-width:0.264583" />
    <path
       class="cls-1"
       d="m 136.22097,88.080289 a 1.5663333,1.5663333 0 0 1 -0.67733,0.174625 l -5.85523,0.264583 a 0.47624999,0.47624999 0 0 0 -0.14287,0.129646 l -3.19882,4.196292 -2.51618,-1.918229 3.19881,-4.198938 a 3.1167916,3.1167916 0 0 1 2.34685,-1.222375 l 5.39486,-0.235479 a 0.47624999,0.47624999 0 0 0 0.14287,-0.129646 l 3.65654,-4.796896 0.28046,1.008063 c 0.0582,0.206375 0.21696,0.312208 0.59796,0.529167 a 3.0532916,3.0532916 0 0 1 0.91017,0.661458 l 0.28046,0.320146 -3.2094,4.206875 a 3.7041666,3.7041666 0 0 1 -1.20915,1.010708 z m 2.7305,-5.291667 a 3.3787291,3.3787291 0 0 1 -0.62441,-0.404812 l -2.58498,3.391958 a 1.5610416,1.5610416 0 0 1 -0.62706,0.492125 l -0.0873,0.03704 -5.60652,0.246062 a 2.0769791,2.0769791 0 0 0 -1.56368,0.812271 l -2.56646,3.370792 0.85989,0.653521 2.56646,-3.368146 a 1.5875,1.5875 0 0 1 0.62971,-0.492125 l 0.0873,-0.03704 6.06425,-0.264583 a 0.59266666,0.59266666 0 0 0 0.2249,-0.0635 2.6749375,2.6749375 0 0 0 0.86783,-0.738188 l 2.64583,-3.473979 c -0.0741,-0.06085 -0.18256,-0.116416 -0.28575,-0.171979 z"
       id="path79"
       style="fill:current;stroke-width:0.264583" />
    <circle
       class="cls-3"
       cx="125.09789"
       cy="91.720955"
       r="2.1801665"
       id="circle81"
       style="fill:#fff;stroke-width:0.264583" />
    <path
       class="cls-1"
       d="m 125.8546,94.853622 a 3.2252708,3.2252708 0 1 1 1.99231,-1.455208 c -0.0582,0.0979 -0.12435,0.1905 -0.1905,0.280458 a 3.20675,3.20675 0 0 1 -1.80181,1.17475 z m -1.73038,-3.722687 a 1.1377083,1.1377083 0 0 0 1.2409,1.698625 v 0 a 1.1138958,1.1138958 0 0 0 0.70115,-0.513292 1.1377083,1.1377083 0 0 0 -1.87325,-1.283229 c -0.0238,0.0291 -0.0476,0.06085 -0.0688,0.0979 z"
       id="path83"
       style="fill:current;stroke-width:0.264583" />
    <circle
       class="cls-3"
       cx="149.1644"
       cy="60.129704"
       r="2.1801665"
       id="circle85"
       style="fill:#fff;stroke-width:0.264583" />
    <path
       class="cls-1"
       d="m 151.5086,62.336331 a 3.175,3.175 0 1 1 0.2196,-0.264583 3.3152291,3.3152291 0 0 1 -0.2196,0.264583 z m -3.48456,-2.161646 a 1.143,1.143 0 0 0 1.1721,1.103313 1.1482917,1.1482917 0 0 0 0.79375,-0.357188 1.1324167,1.1324167 0 0 0 0.30692,-0.814916 v 0 a 1.1350625,1.1350625 0 0 0 -1.96586,-0.74348 c -0.0265,0.02911 -0.0529,0.05821 -0.0767,0.08996 a 1.1244792,1.1244792 0 0 0 -0.23018,0.722312 z"
       id="path87"
       style="fill:current;stroke-width:0.264583" />
    <circle
       class="cls-3"
       cx="142.67416"
       cy="75.594597"
       r="2.4897292"
       id="circle89"
       style="fill:#fff;stroke-width:0.264583" />
    <path
       class="cls-1"
       d="m 119.68452,80.211581 v 0 a 2.6061458,2.6061458 0 0 1 1.95262,-1.018646 l 5.51127,-0.240771 a 1.016,1.016 0 0 0 0.41804,-0.328083 l 1.42346,-1.852083 a 5.2546249,5.2546249 0 0 0 1.09273,2.066395 l -0.8255,1.084792 a 3.175,3.175 0 0 1 -1.03981,0.883708 1.095375,1.095375 0 0 1 -0.45773,0.116417 l -5.969,0.264583 a 1.0398125,1.0398125 0 0 0 -0.41804,0.330729 l -0.99484,1.277938 -1.69068,-1.285875 z"
       id="path91"
       style="fill:current;stroke-width:0.264583" />
    <path
       class="cls-1"
       d="m 128.46339,81.254039 a 1.6166041,1.6166041 0 0 1 -0.67998,0.177271 l -5.85523,0.264583 a 0.50270833,0.50270833 0 0 0 -0.14023,0.129646 l -1.30704,1.711854 -2.51883,-1.931458 1.30704,-1.7145 a 3.1300208,3.1300208 0 0 1 2.34685,-1.222375 l 5.3975,-0.232833 a 0.59266666,0.59266666 0 0 0 0.14023,-0.129646 l 2.05582,-2.69875 0.28045,1.008062 a 4.7281041,4.7281041 0 0 0 0.98425,1.852084 l 0.28046,0.320146 -1.08479,1.423458 a 3.7491458,3.7491458 0 0 1 -1.2065,1.042458 z m 0.36513,-3.423708 -0.84667,1.108604 a 1.5610416,1.5610416 0 0 1 -0.62706,0.492125 l -0.0873,0.03969 -5.60652,0.243417 a 2.0716875,2.0716875 0 0 0 -1.56368,0.814917 l -0.67469,0.883708 0.86254,0.653521 0.67204,-0.883708 a 1.5875,1.5875 0 0 1 0.62971,-0.492125 l 0.0873,-0.03704 6.06425,-0.264583 a 0.55033333,0.55033333 0 0 0 0.23548,-0.05556 2.6749375,2.6749375 0 0 0 0.87048,-0.738187 l 0.57944,-0.759354 a 5.5192083,5.5192083 0 0 1 -0.59531,-1.005417 z"
       id="path93"
       style="fill:current;stroke-width:0.264583" />
    <circle
       class="cls-3"
       cx="118.43039"
       cy="83.217247"
       r="2.1801665"
       id="circle95"
       style="fill:#fff;stroke-width:0.264583" />
    <path
       class="cls-1"
       d="m 119.1871,86.347268 v 0 a 3.222625,3.222625 0 1 1 1.80181,-1.17475 3.2252708,3.2252708 0 0 1 -1.80181,1.17475 z m -1.85208,-2.862791 a 1.1377083,1.1377083 0 1 0 0.83873,-1.373188 1.1244792,1.1244792 0 0 0 -0.635,0.415396 1.1403542,1.1403542 0 0 0 -0.21696,0.957792 z"
       id="path97"
       style="fill:current;stroke-width:0.264583" />
    <path
       class="cls-1"
       d="m 135.70239,59.177206 v 0 a 2.6087916,2.6087916 0 0 0 -0.46302,2.156354 l 1.23031,5.376333 a 1.095375,1.095375 0 0 1 -0.20637,0.492125 l -1.42346,1.852084 a 5.2334583,5.2334583 0 0 1 2.28335,0.508 l 0.82815,-1.084792 a 3.2093958,3.2093958 0 0 0 0.57679,-1.235604 1.0874375,1.0874375 0 0 0 0,-0.470958 l -1.32292,-5.820834 a 1.0398125,1.0398125 0 0 1 0.20373,-0.492125 l 0.99219,-1.299104 -1.69069,-1.288521 z"
       id="path99"
       style="fill:current;stroke-width:0.264583" />
    <path
       class="cls-1"
       d="m 136.89831,70.040998 a 4.7333958,4.7333958 0 0 0 -2.05846,-0.455084 h -1.05833 l 2.05581,-2.69875 a 0.52916666,0.52916666 0 0 0 0.0873,-0.169333 l -1.20385,-5.267854 a 3.127375,3.127375 0 0 1 0.55562,-2.584979 l 1.30704,-1.7145 2.51884,1.920875 -1.30704,1.711854 a 0.54239583,0.54239583 0 0 0 -0.0873,0.169333 l 1.30704,5.715 a 1.6113125,1.6113125 0 0 1 0,0.701146 3.7491458,3.7491458 0 0 1 -0.67204,1.436687 l -1.08479,1.423459 z m -0.10584,-11.432646 -0.67468,0.883708 a 2.0849166,2.0849166 0 0 0 -0.37042,1.725084 l 1.24883,5.468937 v 0.09525 a 1.5636875,1.5636875 0 0 1 -0.30956,0.735542 l -0.84402,1.108604 a 5.5112708,5.5112708 0 0 1 1.12448,0.306916 l 0.57944,-0.759354 a 2.6855208,2.6855208 0 0 0 0.48154,-1.034521 0.52916666,0.52916666 0 0 0 0,-0.24077 l -1.37319,-5.929313 0.0132,-0.09525 a 1.5875,1.5875 0 0 1 0.30956,-0.735541 l 0.67469,-0.883709 z"
       id="path101"
       style="fill:current;stroke-width:0.264583" />
    <circle
       class="cls-3"
       cx="138.26886"
       cy="57.171665"
       r="2.1801665"
       id="circle103"
       style="fill:#fff;stroke-width:0.264583" />
    <path
       class="cls-1"
       d="m 138.36939,60.391644 a 3.2279166,3.2279166 0 1 1 2.46327,-1.27 3.2014583,3.2014583 0 0 1 -2.46327,1.27 z m -1.2356,-3.175 a 1.1218333,1.1218333 0 0 0 0.35718,0.79375 1.1350625,1.1350625 0 0 0 1.91559,-0.862542 v 0 a 1.1377083,1.1377083 0 1 0 -2.27277,0.06879 z"
       id="path105"
       style="fill:current;stroke-width:0.264583" />
    <path
       class="cls-1"
       d="m 144.98397,99.97331 -4.66725,-8.416396 a 3.175,3.175 0 0 1 -0.38893,-3.193521 3.0771041,3.0771041 0 0 1 0.34131,-0.563562 l 1.85208,-2.420938 1.69069,1.288521 -1.85208,2.420938 a 1.0583333,1.0583333 0 0 0 -0.14288,1.03452 l 5.14086,9.064625 a 3.2146875,3.2146875 0 0 1 -0.42598,3.111503 l -3.13532,4.10898 -1.68804,-1.28852 3.13267,-4.10898 a 1.0742083,1.0742083 0 0 0 0.14287,-1.03717 z"
       id="path107"
       style="fill:current;stroke-width:0.264583" />
    <path
       class="cls-1"
       d="m 140.97025,105.22 3.43958,-4.52438 a 0.56356249,0.56356249 0 0 0 0.082,-0.50535 L 139.859,91.837372 a 3.6618333,3.6618333 0 0 1 -0.41805,-3.704166 3.6247916,3.6247916 0 0 1 0.39952,-0.656167 l 2.159,-2.836333 2.51884,1.918229 -2.16165,2.836333 a 0.55297916,0.55297916 0 0 0 -0.082,0.500063 l 5.11969,9.027583 0.0318,0.06615 a 3.7279791,3.7279791 0 0 1 -0.50006,3.616846 l -3.43959,4.52438 z m 0.38364,-14.840482 -0.0318,-0.0635 a 1.5875,1.5875 0 0 1 0.21431,-1.545166 l 1.5293,-2.005542 -0.8599,-0.661458 -1.52929,2.008187 a 2.5796875,2.5796875 0 0 0 -0.28575,0.468313 2.6220208,2.6220208 0 0 0 0.33602,2.661708 l 4.70429,8.466666 0.0291,0.0635 a 1.5875,1.5875 0 0 1 -0.21431,1.542524 l -2.81516,3.70416 0.85989,0.66411 2.81517,-3.70417 a 2.6749375,2.6749375 0 0 0 0.37041,-2.569103 z"
       id="path109"
       style="fill:current;stroke-width:0.264583" />
    <circle
       class="cls-3"
       cx="142.40692"
       cy="105.65656"
       r="2.1801665"
       id="circle111"
       style="fill:#fff;stroke-width:0.264583" />
    <path
       class="cls-1"
       d="m 142.77206,108.85802 a 3.2211989,3.2211989 0 1 1 -0.73554,-6.40027 v 0 a 3.2211989,3.2211989 0 0 1 0.73554,6.40027 z m -1.49225,-3.06917 a 1.1377083,1.1377083 0 1 0 1.00012,-1.26206 v 0 a 1.1350625,1.1350625 0 0 0 -0.762,0.42333 v 0.0185 a 1.1244792,1.1244792 0 0 0 -0.23812,0.82021 z"
       id="path113"
       style="fill:current;stroke-width:0.264583" />
    <path
       class="cls-1"
       d="m 161.67125,78.052581 -9.35303,-2.267479 a 3.175,3.175 0 0 0 -3.175,0.470958 3.0030208,3.0030208 0 0 0 -0.45243,0.481542 l -1.85209,2.418291 1.68805,1.288521 1.85208,-2.420937 a 1.0583333,1.0583333 0 0 1 0.96044,-0.41275 l 10.10443,2.553229 a 3.20675,3.20675 0 0 0 2.88396,-1.235604 l 3.13267,-4.108979 -1.68804,-1.288521 -3.13796,4.106333 a 1.0715625,1.0715625 0 0 1 -0.96308,0.415396 z"
       id="path115"
       style="fill:current;stroke-width:0.264583" />
    <path
       class="cls-1"
       d="M 161.38814,80.679893 151.2546,78.124018 a 0.55033333,0.55033333 0 0 0 -0.46038,0.211667 l -2.159,2.836333 -2.51883,-1.918229 2.16165,-2.836333 a 3.7597291,3.7597291 0 0 1 0.52916,-0.558271 3.6538958,3.6538958 0 0 1 3.67507,-0.574146 l 9.28423,2.251604 a 0.55827083,0.55827083 0 0 0 0.46302,-0.214312 l 3.43958,-4.524375 2.51883,1.918229 -3.43958,4.524375 a 3.7332708,3.7332708 0 0 1 -3.36021,1.439333 z m 4.48469,-6.421437 -2.81781,3.704167 a 1.5875,1.5875 0 0 1 -1.4314,0.613833 l -9.42181,-2.280708 -0.0609,-0.01852 a 2.6273125,2.6273125 0 0 0 -2.64583,0.381 2.5743958,2.5743958 0 0 0 -0.37835,0.399521 l -1.5293,2.005541 0.8599,0.656167 1.52929,-2.005542 a 1.5875,1.5875 0 0 1 1.43404,-0.616479 l 10.13619,2.558521 a 2.6855208,2.6855208 0 0 0 2.38125,-1.039813 l 2.81781,-3.704166 z"
       id="path117"
       style="fill:current;stroke-width:0.264583" />
    <circle
       class="cls-3"
       cx="166.47078"
       cy="74.065308"
       r="2.1801665"
       id="circle119"
       style="fill:#fff;stroke-width:0.264583" />
    <path
       class="cls-1"
       d="m 166.96291,77.248248 a 3.222625,3.222625 0 0 1 -3.09298,-5.085292 3.175,3.175 0 0 1 2.11667,-1.280583 3.2207574,3.2207574 0 0 1 0.98425,6.365875 z m -1.41023,-3.844396 a 1.1244792,1.1244792 0 0 0 -0.20637,0.846666 v 0 a 1.1377083,1.1377083 0 1 0 0.2196,-0.865187 z"
       id="path121"
       style="fill:current;stroke-width:0.264583" />
    <path
       class="cls-1"
       d="m 126.24618,65.807664 a 2.2167782,2.2167782 0 1 0 -2.69346,3.521604 2.1986875,2.1986875 0 0 0 1.73832,0.407459 7.9004582,7.9004582 0 0 0 -0.8255,3.534833 5.7255833,5.7255833 0 1 1 5.82083,-7.625291 7.8448957,7.8448957 0 0 0 -3.18823,1.730374 2.2092708,2.2092708 0 0 0 -0.85196,-1.568979 z"
       id="path123"
       style="fill:current;stroke-width:0.264583" />
    <path
       class="cls-1"
       d="m 122.11339,55.324873 v 0 a 1.6218958,1.6218958 0 0 0 -0.28839,1.346729 l 0.76729,3.357562 a 0.65881249,0.65881249 0 0 1 -0.12965,0.306917 l -0.2196,0.291042 a 0.65087499,0.65087499 0 0 0 0.32543,1.018646 h 0.0132 a 0.65352083,0.65352083 0 0 0 0.71702,-0.224896 l 0.21961,-0.28575 a 1.9870208,1.9870208 0 0 0 0.35983,-0.772584 0.68791666,0.68791666 0 0 0 0,-0.293687 l -0.83344,-3.638021 a 0.65881249,0.65881249 0 0 1 0.12965,-0.306917 l 0.2196,-0.291041 a 0.65616666,0.65616666 0 0 0 -0.1217,-0.918104 v 0 a 0.65352083,0.65352083 0 0 0 -0.91811,0.124354 z"
       id="path125"
       style="fill:current;stroke-width:0.264583" />
    <path
       class="cls-1"
       d="m 151.97427,80.547602 a 5.2546249,5.2546249 0 0 1 2.08491,3.886729 6.0113333,6.0113333 0 0 1 -1.2356,4.315354 5.9425416,5.9425416 0 0 1 -8.43492,1.105958 L 130.69647,79.184998 a 1.7700625,1.7700625 0 0 1 -0.34395,-2.614084 1.8520833,1.8520833 0 0 1 1.23825,-0.764646 1.8018125,1.8018125 0 0 1 1.39435,0.402167 l 13.69483,10.689167 a 2.238375,2.238375 0 0 0 3.175,-0.420688 2.1457708,2.1457708 0 0 0 0.43657,-1.661583 2.19075,2.19075 0 0 0 -0.85725,-1.486959"
       id="path127"
       style="fill:current;stroke-width:0.264583" />
    <path
       class="cls-4"
       d="m 128.98197,70.57281 a 2.2727708,2.2727708 0 1 1 0.43128,3.175 2.2780625,2.2780625 0 0 1 -0.43128,-3.175 z"
       id="path129"
       style="fill:none;stroke-width:0.264583" />
    <path
       class="cls-1"
       d="m 146.42595,76.221664 a 0.48154166,0.48154166 0 0 0 0.0609,0.03969 v 0 z"
       id="path131"
       style="fill:current;stroke-width:0.264583" />
    <path
       class="cls-1"
       d="m 144.49185,79.452227 c -0.045,-0.03175 -0.0926,-0.05556 -0.14023,-0.08996 v 0 0 z"
       id="path133"
       style="fill:current;stroke-width:0.264583" />
    <path
       class="cls-1"
       d="m 145.03954,72.099456 a 4.2148124,4.2148124 0 1 1 -5.90815,0.79375 4.2333333,4.2333333 0 0 1 5.90815,-0.79375 z m -1.5875,2.071687 a 1.6113125,1.6113125 0 1 0 0.30427,2.256896 1.6113125,1.6113125 0 0 0 -0.29634,-2.256896 z"
       id="path135"
       style="fill:current;stroke-width:0.264583" />
    <path
       class="cls-1"
       d="m 146.74081,86.82881 a 2.1881041,2.1881041 0 0 0 1.66158,0.436562 2.1325416,2.1325416 0 0 0 1.48961,-0.851958 2.1881041,2.1881041 0 0 0 0.45243,-1.674812 2.1616458,2.1616458 0 0 0 -0.87312,-1.49225 l -4.97946,-3.794125 a 1.778,1.778 0 0 0 1.25412,0.309562 1.8785416,1.8785416 0 0 0 1.23561,-0.772583 1.7674166,1.7674166 0 0 0 -0.35454,-2.611438 l -0.14023,-0.108479 v 0 c 0.0265,0.02117 0.0556,0.03175 0.082,0.05292 l 5.1726,3.942291 a 5.9451874,5.9451874 0 0 1 1.13507,8.432271 6.0086874,6.0086874 0 0 1 -3.84969,2.320396 5.2519791,5.2519791 0 0 1 -4.30742,-1.005417 z"
       id="path137"
       style="fill:current;stroke-width:0.264583" />
    <path
       class="cls-1"
       d="m 136.76602,73.578477 -1.95792,-1.49225 a 2.2357291,2.2357291 0 0 0 -3.15913,0.423333 2.1166666,2.1166666 0 0 0 -0.44185,1.656292 2.19075,2.19075 0 0 0 0.88106,1.476375 l 9.525,7.265458 a 1.8520833,1.8520833 0 0 1 0.35454,2.645833 1.8018125,1.8018125 0 0 1 -1.23825,0.751417 1.8520833,1.8520833 0 0 1 -1.3917,-0.415396 l -9.53823,-7.268104 a 5.9930461,5.9930461 0 1 1 7.27604,-9.525 l 1.88912,1.441979 a 4.1751249,4.1751249 0 0 0 -1.5875,1.391709 c -0.35454,0.489479 -0.48154,1.092729 -0.61118,1.648354 z"
       id="path139"
       style="fill:current;stroke-width:0.264583" />
    <path
       class="cls-1"
       d="m 145.66925,78.22456 a 4.1698333,4.1698333 0 0 0 0.81756,-1.955271 l 0.14023,0.108479 a 1.7674166,1.7674166 0 0 1 0.35454,2.611438 1.8785416,1.8785416 0 0 1 -1.23561,0.772583 1.778,1.778 0 0 1 -1.25412,-0.309562 l -0.12965,-0.100542 a 4.1354374,4.1354374 0 0 0 1.30705,-1.127125 z"
       id="path141"
       style="fill:current;stroke-width:0.264583" />
    <path
       class="cls-1"
       d="m 144.3622,79.351685 -0.0688,-0.05292 a 1.8018125,1.8018125 0 0 1 -0.75406,-1.23825 1.8679583,1.8679583 0 0 1 0.41804,-1.394354 1.8309166,1.8309166 0 0 1 1.22502,-0.762 1.7991666,1.7991666 0 0 1 1.24354,0.3175 l 0.0609,0.04762 a 4.1909999,4.1909999 0 0 1 -2.11667,3.082396 z"
       id="path143"
       style="fill:current;stroke-width:0.264583" />
  </g>
</svg>
