<?xml version="1.0" encoding="UTF-8" standalone="no"?>
<!-- Created with Inkscape (http://www.inkscape.org/) -->

<svg
   width="25.187046mm"
   height="60.972332mm"
   viewBox="0 0 25.187046 60.972332"
   version="1.1"
   id="svg372"
   xmlns="http://www.w3.org/2000/svg">
   <defs id="defs369" >
      <style>
         .moving{
            animation: moving 3s infinite alternate ease-in-out;
         }
         @keyframes moving{
            0%{
               transform:rotateX(-6deg);
            }
            100%{
               transform:rotateX(6deg);
            }
         }
      </style>
   </defs>
  <g
     id="layer1"
     transform="translate(-104.1853,-117.73311)">
    <path
       class="cls-1"
       d="m 122.48921,170.33611 v -6.59606 a 1.4181666,1.4181666 0 0 0 -0.43921,-1.0213 l -3.73856,-3.73856 v -24.42633 a 4.4000208,4.4000208 0 1 0 -2.92364,0 v 24.93169 a 1.4181666,1.4181666 0 0 0 0.43921,1.02393 l 3.73856,3.73857 v 5.94518 a 4.3841458,4.3841458 0 1 0 5.86052,4.11163 c 0,-1.77006 -1.25413,-3.37609 -2.93688,-3.96875 z m -5.64885,-38.42015 a 1.4631458,1.4631458 0 1 1 1.46315,-1.46314 1.4684375,1.4684375 0 0 1 -1.46315,1.46314 z m 4.17777,43.99492 a 1.4631458,1.4631458 0 1 1 1.46315,-1.46315 1.4684375,1.4684375 0 0 1 -1.46315,1.46315 z"
       id="path158"
       style="fill:current;stroke-width:0.264583" />
       <g class="moving" style="animation-duration:3s">
         <path
            class="cls-1"
            d="m 123.65338,159.69192 c 1.12712,-0.83079 2.39977,-2.35744 2.11667,-3.12208 -0.10584,-0.27782 -0.87048,-0.52917 -3.31259,-0.44715 a 2.0452291,2.0452291 0 1 0 0.48684,3.96875 v 0.0212 c 0.0423,-0.0212 0.10583,-0.0423 0.14816,-0.0635 a 0.02116667,0.02116667 0 0 1 0.0212,-0.0212 1.8706041,1.8706041 0 0 0 0.52917,-0.33867 z"
            id="path160"
            style="fill:current;stroke-width:0.264583"
            />
       </g>
       <g class="moving" style="animation-duration:2s">
    <path
       class="cls-1"
       d="m 123.65338,153.61709 c 1.12712,-0.82815 2.39977,-2.35744 2.11667,-3.12209 -0.10584,-0.26458 -0.87048,-0.52916 -3.31259,-0.4445 a 2.0425833,2.0425833 0 0 0 -1.00012,0.16934 2.0214166,2.0214166 0 0 0 -1.03188,2.70404 2.0425833,2.0425833 0 0 0 2.52677,1.10596 v 0.0212 c 0.0423,-0.0212 0.10584,-0.0423 0.14817,-0.0635 a 0.02116667,0.02116667 0 0 1 0.0212,-0.0212 1.8758958,1.8758958 0 0 0 0.52916,-0.34132 z"
       id="path162"
       style="fill:current;stroke-width:0.264583" />
       </g>
    <path
       class="cls-1"
       d="m 119.70844,121.46228 c -0.83608,-2.93423 -1.43139,-3.72798 -1.78329,-3.72798 -1.02129,-0.0582 -2.34421,2.03729 -2.89189,3.68829 a 3.5612916,3.5612916 0 0 0 -0.20109,0.762 0.0238125,0.0238125 0 0 0 -0.0159,0.0318 c 0,0.0582 0,0.14287 -0.0185,0.20108 h 0.0264 a 2.5320625,2.5320625 0 0 0 2.27807,2.56911 2.5479375,2.5479375 0 0 0 2.61408,-3.51632 z"
       id="path164"
       style="fill:current;stroke-width:0.264583" />
    <path
       class="cls-1"
       d="m 111.52223,122.66084 c -2.83368,-1.1139 -3.83645,-1.12977 -4.05077,-0.84138 -0.66675,0.77523 0.1958,3.09827 1.17475,4.53761 a 3.3840208,3.3840208 0 0 0 0.48419,0.61912 0.0238125,0.0238125 0 0 0 0.0159,0.0344 c 0.0397,0.0423 0.10583,0.0953 0.14816,0.13758 v -0.0265 a 2.5320625,2.5320625 0 0 0 3.43959,-0.24871 2.5479375,2.5479375 0 0 0 -1.2065,-4.21216 z"
       id="path166"
       style="fill:current;stroke-width:0.264583" />
    <path
       class="cls-1"
       d="m 107.62757,128.75419 c -2.77548,1.24619 -3.4925,1.95263 -3.43959,2.30717 0.0873,1.01864 2.35215,2.02671 4.064,2.33627 a 3.5639375,3.5639375 0 0 0 0.79375,0.0873 0.02645833,0.02645833 0 0 0 0.0344,0.0132 c 0.0609,0 0.14288,0 0.20108,0 v -0.0238 a 2.5452916,2.5452916 0 1 0 -1.63512,-4.70958 z"
       id="path168"
       style="fill:current;stroke-width:0.264583" />
    <path
       class="cls-1"
       d="m 109.1939,135.69421 c -1.09273,2.84163 -1.10331,3.84704 -0.81227,4.05871 0.77788,0.66146 3.09563,-0.21696 4.52967,-1.2065 a 3.4713333,3.4713333 0 0 0 0.61648,-0.48683 0.0238125,0.0238125 0 0 0 0.0317,-0.0159 c 0.0423,-0.0423 0.0953,-0.10848 0.13758,-0.14816 h -0.0265 a 2.5320625,2.5320625 0 0 0 -0.26458,-3.42371 2.5479375,2.5479375 0 0 0 -4.21217,1.22237 z"
       id="path170"
       style="fill:current;stroke-width:0.264583" />
    <path
       class="cls-1"
       d="m 120.80382,138.78455 c 2.61408,1.56104 3.60098,1.74095 3.86027,1.4896 0.79375,-0.65352 0.31221,-3.08769 -0.41804,-4.66725 a 3.3416875,3.3416875 0 0 0 -0.37571,-0.69056 0.02645833,0.02645833 0 0 0 0,-0.037 c -0.0344,-0.0476 -0.09,-0.10848 -0.12436,-0.15875 l -0.0132,0.0238 a 2.5320625,2.5320625 0 0 0 -3.42635,-0.31221 2.5585208,2.5585208 0 0 0 -0.48419,3.56658 2.5188333,2.5188333 0 0 0 0.9869,0.79375 z"
       id="path172"
       style="fill:current;stroke-width:0.264583" />
    <path
       class="cls-1"
       d="m 125.55838,133.63575 c 2.96333,-0.6985 3.79942,-1.25677 3.81,-1.6166 0.10583,-1.016 -1.92617,-2.43417 -3.55071,-3.06123 a 3.5004375,3.5004375 0 0 0 -0.74877,-0.23283 0.0238125,0.0238125 0 0 0 -0.0318,-0.0185 c -0.0582,0 -0.14287,-0.0159 -0.20108,-0.0291 v 0.0265 a 2.5320625,2.5320625 0 0 0 -2.67759,2.15636 2.5585208,2.5585208 0 0 0 2.13519,2.91041 2.5161875,2.5161875 0 0 0 1.25413,-0.12435 z"
       id="path174"
       style="fill:current;stroke-width:0.264583" />
    <path
       class="cls-1"
       d="m 125.09271,126.00517 c 1.44463,-2.68023 1.5875,-3.67242 1.32292,-3.92112 -0.68792,-0.75407 -3.10092,-0.17992 -4.64873,0.61912 a 3.5163125,3.5163125 0 0 0 -0.67204,0.40481 0.0238125,0.0238125 0 0 0 -0.0344,0 c -0.0476,0.0371 -0.10583,0.0953 -0.15346,0.1323 h 0.0238 a 2.5452916,2.5452916 0 0 0 3.41841,3.76237 2.5664583,2.5664583 0 0 0 0.74348,-1.01865 z"
       id="path176"
       style="fill:current;stroke-width:0.264583" />
  </g>
</svg>
