<?xml version="1.0" encoding="UTF-8" standalone="no"?>
<!-- Created with Inkscape (http://www.inkscape.org/) -->

<svg
   width="22.136341mm"
   height="60.972332mm"
   viewBox="0 0 22.136341 60.972332"
   version="1.1"
   id="svg476"
   xmlns="http://www.w3.org/2000/svg">
  <defs
     id="defs473" />
  <g
     id="layer1"
     transform="translate(-4.6520564,-123.90891)">
    <path
       class="cls-1"
       d="m 6.8639489,163.0552 a 2.5294166,2.5294166 0 0 0 0.9154583,0.86783 2.5611666,2.5611666 0 0 0 3.4660418,-0.9816 2.5320625,2.5320625 0 0 0 -0.79375,-3.34169 l 0.02117,-0.0159 c -0.05292,-0.0265 -0.121709,-0.0741 -0.174625,-0.10055 a 0.02645833,0.02645833 0 0 0 -0.03704,0 3.5057291,3.5057291 0 0 0 -0.7355418,-0.26458 c -1.666875,-0.50271 -4.1407291,-0.62706 -4.6804791,0.24077 -0.2116667,0.29104 0.1058333,1.2409 2.016125,3.61156 z"
       id="path178"
       style="fill:current;stroke-width:0.264583" />
    <path
       class="cls-1"
       d="m 21.844657,162.99435 c 1.775354,-2.47121 2.042583,-3.43959 1.815042,-3.7174 -0.587375,-0.83873 -3.053292,-0.57679 -4.688417,0.0159 a 3.5189583,3.5189583 0 0 0 -0.73025,0.3228 0.02645833,0.02645833 0 0 0 -0.03704,0 c -0.05027,0.0291 -0.116416,0.082 -0.169333,0.11112 l 0.02381,0.0132 a 2.5452916,2.5452916 0 1 0 3.775604,3.25438 z"
       id="path180"
       style="fill:current;stroke-width:0.264583" />
    <path
       class="cls-1"
       d="m 19.905261,176.51455 v -6.59871 a 1.4181666,1.4181666 0 0 0 -0.439208,-1.02129 l -3.735917,-3.73856 v -24.42633 a 4.3973749,4.3973749 0 1 0 -2.926291,0 v 24.93433 a 1.4181666,1.4181666 0 0 0 0.439208,1.02129 l 3.738562,3.73856 v 5.94519 a 4.3841458,4.3841458 0 1 0 5.860521,4.11163 c 0,-1.76742 -1.254125,-3.37344 -2.936875,-3.96875 z m -5.648854,-38.42279 a 1.4631458,1.4631458 0 1 1 1.463146,-1.46314 1.4684375,1.4684375 0 0 1 -1.463146,1.46314 z m 4.177771,43.99492 a 1.4631458,1.4631458 0 1 1 1.463146,-1.46315 1.4684375,1.4684375 0 0 1 -1.463146,1.46315 z"
       id="path182"
       style="fill:current;stroke-width:0.264583" />
    <path
       class="cls-1"
       d="m 17.12449,127.64072 c -0.836083,-2.92629 -1.431395,-3.74385 -1.793875,-3.73062 -1.021291,-0.0582 -2.344208,2.03729 -2.891895,3.70416 a 3.3469791,3.3469791 0 0 0 -0.198438,0.75936 0.0238125,0.0238125 0 0 0 -0.01852,0.0318 c 0,0.0608 0,0.14287 -0.01852,0.20108 h 0.02646 a 2.5347083,2.5347083 0 0 0 2.278062,2.57175 2.5585208,2.5585208 0 0 0 2.796646,-2.27013 2.5267708,2.5267708 0 0 0 -0.182562,-1.24618 z"
       id="path184"
       style="fill:current;stroke-width:0.264583" />
    <path
       class="cls-1"
       d="m 8.9382822,128.83664 c -2.8336875,-1.11125 -3.8364583,-1.12977 -4.0507708,-0.84138 -0.66675,0.77523 0.1957917,3.10092 1.17475,4.54025 a 3.5745208,3.5745208 0 0 0 0.4841875,0.62177 0.02910417,0.02910417 0 0 0 0.015875,0.0344 c 0.042333,0.0423 0.1058333,0.0926 0.1481667,0.13494 v -0.0238 a 2.5452916,2.5452916 0 1 0 2.2198541,-4.46352 z"
       id="path186"
       style="fill:current;stroke-width:0.264583" />
    <path
       class="cls-1"
       d="m 6.5993656,141.87266 c -1.0927292,2.83898 -1.1033125,3.84439 -0.8122709,4.05606 0.777875,0.66146 3.095625,-0.21696 4.5296663,-1.2065 a 3.4713333,3.4713333 0 0 0 0.61648,-0.48683 c 0.02381,0 0.03439,-0.0159 0.03439,-0.0159 0.04233,-0.0397 0.0926,-0.10848 0.134938,-0.14816 h -0.02646 a 2.5452916,2.5452916 0 1 0 -4.4767504,-2.19869 z"
       id="path190"
       style="fill:current;stroke-width:0.264583" />
    <path
       class="cls-1"
       d="m 18.219865,144.96035 c 2.614084,1.56104 3.603625,1.74095 3.860271,1.49225 0.79375,-0.65617 0.312209,-3.09034 -0.418041,-4.6699 a 3.4845625,3.4845625 0 0 0 -0.375709,-0.69056 0.0238125,0.0238125 0 0 0 0,-0.0344 c -0.03175,-0.0503 -0.08996,-0.11112 -0.124354,-0.15875 v 0.0212 a 2.5452916,2.5452916 0 1 0 -2.910417,4.04019 z"
       id="path192"
       style="fill:current;stroke-width:0.264583" />
    <path
       class="cls-1"
       d="m 22.974428,139.81155 c 2.963333,-0.6985 3.799416,-1.25412 3.81,-1.61395 0.105833,-1.016 -1.926167,-2.43682 -3.550708,-3.06123 a 3.508375,3.508375 0 0 0 -0.748771,-0.23548 0.0238125,0.0238125 0 0 0 -0.03175,-0.0185 c -0.05821,0 -0.142875,-0.0159 -0.201084,-0.0265 v 0.0238 a 2.5452916,2.5452916 0 1 0 0.714375,4.93183 z"
       id="path194"
       style="fill:current;stroke-width:0.264583" />
    <path
       class="cls-1"
       d="m 22.508761,132.18097 c 1.444625,-2.67758 1.5875,-3.67242 1.322917,-3.92112 -0.687917,-0.75407 -3.100917,-0.17728 -4.646083,0.61912 a 3.4554583,3.4554583 0 0 0 -0.674688,0.40481 0.02645833,0.02645833 0 0 0 -0.0344,0 c -0.04763,0.0344 -0.105833,0.0926 -0.153458,0.12965 h 0.02381 a 2.5452916,2.5452916 0 0 0 3.418417,3.76237 2.5003125,2.5003125 0 0 0 0.743479,-1.01864 z"
       id="path196"
       style="fill:current;stroke-width:0.264583" />
  </g>
</svg>
