<?xml version="1.0" encoding="UTF-8" standalone="no"?>
<!-- Created with Inkscape (http://www.inkscape.org/) -->

<svg
   width="19.423775mm"
   height="21.609198mm"
   viewBox="0 0 19.423775 21.609198"
   version="1.1"
   id="svg836"
   xmlns="http://www.w3.org/2000/svg">
 
  <defs
     id="defs833" />
  <g
     id="layer1"
     transform="translate(-85.732345,-96.991245)">
    <circle
       class="cls-2"
       cx="93.300446"
       cy="104.89539"
       r="2.4500418"
       id="circle52"
       style="fill:current;stroke:current;stroke-width:1.85208px;stroke-miterlimit:10" />
    <path
       class="cls-1"
       d="m 91.850518,96.994931 a 0.75141666,0.75141666 0 0 1 0.505355,0.309563 0.75935416,0.75935416 0 0 1 0.174625,0.5715 0.74347916,0.74347916 0 0 1 -0.304271,0.510646 l -0.230188,0.177271 a 0.91810416,0.91810416 0 0 0 -0.164041,1.299104 l 0.574145,0.949855 a 0.73289582,0.73289582 0 0 1 0.166688,0.5715 0.76464582,0.76464582 0 0 1 -0.312208,0.51064 0.72495832,0.72495832 0 0 1 -1.074209,-0.13758 l -0.563562,-0.94985 a 2.4262291,2.4262291 0 0 1 0.439208,-3.463399 l 0.230188,-0.17727 a 0.75406249,0.75406249 0 0 1 0.55827,-0.17198 z"
       id="path54"
       style="fill:current;stroke-width:0.264583" />
    <path
       class="cls-1"
       d="m 85.989998,101.67276 0.211666,-0.19843 a 2.4235833,2.4235833 0 0 1 3.489854,0.11906 l 0.844021,0.71702 a 0.72495832,0.72495832 0 0 1 -0.0344,1.08215 0.76464582,0.76464582 0 0 1 -0.552979,0.22754 0.73554166,0.73554166 0 0 1 -0.529166,-0.26459 l -0.846667,-0.71702 a 0.91545832,0.91545832 0 0 0 -1.322917,-0.045 l -0.211666,0.19844 a 0.74083332,0.74083332 0 0 1 -0.55298,0.21961 0.79374999,0.79374999 0 0 1 -0.529166,-0.26459 0.72760416,0.72760416 0 0 1 0.03704,-1.08214 z"
       id="path56"
       style="fill:current;stroke-width:0.264583" />
    <path
       class="cls-1"
       d="m 94.805914,108.78212 a 1.4049375,1.4049375 0 0 1 1.105958,0 1.42875,1.42875 0 0 1 0.83873,0.73025 1.3758333,1.3758333 0 0 1 0.02117,1.1086 l -0.1905,0.50536 a 1.7118541,1.7118541 0 0 0 1.018646,2.21721 l 6.614582,2.45797 a 1.3784791,1.3784791 0 0 1 0.82814,0.74084 1.4234583,1.4234583 0 0 1 0,1.11389 1.3890625,1.3890625 0 0 1 -0.73025,0.8308 1.4049375,1.4049375 0 0 1 -1.10596,0 l -6.614574,-2.45798 a 4.4979166,4.4979166 0 0 1 -2.71198,-5.9108 l 0.187855,-0.50535 a 1.4022916,1.4022916 0 0 1 0.738187,-0.83079 z"
       id="path58"
       style="fill:current;stroke-width:0.264583" />
    <path
       class="cls-1"
       d="m 97.946518,106.30297 0.529167,-0.0979 a 4.5137916,4.5137916 0 0 1 5.347225,3.70416 l 1.25942,6.93738 a 1.3520208,1.3520208 0 0 1 -1.14565,1.66158 1.4393333,1.4393333 0 0 1 -1.09802,-0.20373 1.3837708,1.3837708 0 0 1 -0.58208,-0.94456 l -1.26206,-6.94002 a 1.7118541,1.7118541 0 0 0 -2.002898,-1.39171 l -0.529166,0.0979 a 1.3678958,1.3678958 0 0 1 -1.087438,-0.21432 1.4234583,1.4234583 0 0 1 -0.574146,-0.95514 1.3520208,1.3520208 0 0 1 1.148292,-1.65629 z"
       id="path60"
       style="fill:current;stroke-width:0.264583" />
  </g>
</svg>
